<?xml version="1.0" standalone="no"?>
<!DOCTYPE svg PUBLIC "-//W3C//DTD SVG 20010904//EN"
 "http://www.w3.org/TR/2001/REC-SVG-20010904/DTD/svg10.dtd">
<svg version="1.0" xmlns="http://www.w3.org/2000/svg"
 width="786.000000pt" height="1280.000000pt" viewBox="0 0 786.000000 1280.000000"
 preserveAspectRatio="xMidYMid meet">
<metadata>
Created by potrace 1.15, written by Peter Selinger 2001-2017
</metadata>
<g transform="translate(0.000000,1280.000000) scale(0.100000,-0.100000)"
fill="#000000" stroke="none">
<path d="M4200 12794 c-170 -14 -302 -28 -410 -45 -832 -129 -1628 -483 -2260
-1004 -141 -116 -415 -396 -500 -509 -336 -454 -540 -1020 -694 -1931 -19
-115 -49 -300 -66 -410 -38 -243 -43 -268 -135 -671 -113 -492 -142 -685 -131
-879 9 -174 40 -276 114 -373 47 -63 101 -107 172 -141 77 -36 192 -37 265 -2
73 35 206 175 305 320 271 395 354 492 473 551 123 60 226 51 412 -39 120 -58
201 -117 290 -213 268 -290 417 -754 465 -1448 21 -314 9 -436 -59 -595 -62
-147 -121 -244 -421 -700 -101 -152 -203 -345 -237 -445 -28 -84 -25 -229 6
-297 28 -63 122 -156 185 -184 173 -76 417 11 715 254 94 77 403 369 500 473
143 152 191 225 194 294 2 70 -44 120 -111 120 -50 0 -161 -65 -322 -190 -228
-177 -292 -194 -341 -92 -34 70 -33 178 2 252 89 190 401 377 834 499 211 59
450 100 584 101 91 0 127 -16 231 -101 159 -130 189 -140 317 -103 294 85 606
325 799 615 222 334 258 671 101 948 -85 151 -251 295 -465 404 -238 122 -474
199 -1087 357 -768 197 -1061 314 -1298 517 -157 135 -256 332 -257 511 0 149
67 216 397 397 291 159 343 227 534 698 107 264 153 348 237 439 79 84 139
114 252 129 343 44 764 -103 1125 -394 442 -356 890 -985 1224 -1718 159 -348
217 -518 258 -754 25 -146 25 -577 0 -728 -109 -648 -342 -1021 -927 -1489
-90 -72 -252 -196 -780 -599 -151 -114 -290 -194 -685 -390 -198 -98 -409
-208 -470 -244 -400 -240 -635 -544 -635 -819 0 -70 4 -88 23 -117 33 -50 88
-73 172 -74 59 0 81 5 135 32 114 56 211 166 420 473 265 391 336 461 595 586
314 152 565 230 925 291 123 20 359 22 522 4 177 -20 323 -17 388 8 68 26 94
49 179 165 433 590 720 1400 821 2316 32 294 41 794 20 1095 -79 1106 -426
2083 -992 2788 -106 133 -349 374 -466 464 -290 224 -608 322 -1042 323 -327
0 -637 -54 -978 -172 -465 -160 -1002 -480 -1159 -691 -131 -177 -189 -400
-228 -877 -23 -286 -33 -371 -61 -507 -62 -315 -191 -507 -412 -618 -162 -81
-341 -97 -456 -41 -78 38 -223 178 -290 280 -74 111 -111 188 -156 325 -78
234 -106 450 -97 746 14 422 109 780 288 1080 308 517 871 962 1658 1312 499
221 972 334 1461 350 677 21 1248 -173 1805 -613 144 -114 427 -399 539 -544
183 -236 312 -450 461 -768 414 -882 658 -1848 716 -2832 14 -246 6 -789 -15
-1005 -53 -527 -137 -924 -305 -1432 -455 -1377 -1172 -2594 -1999 -3394 -609
-588 -1256 -946 -1972 -1088 -754 -150 -1348 -93 -1788 170 -164 98 -276 194
-467 400 -168 181 -210 212 -277 206 -64 -5 -114 -48 -187 -158 -88 -131 -115
-241 -92 -375 44 -251 260 -534 608 -796 335 -252 667 -393 1068 -454 162 -25
554 -25 735 0 526 71 1047 255 1501 529 713 430 1425 1184 1961 2077 566 944
995 2086 1248 3325 111 541 143 858 144 1395 1 367 -6 492 -45 845 -83 750
-292 1557 -603 2325 -271 669 -711 1251 -1251 1656 -424 318 -863 523 -1275
595 -110 20 -372 32 -480 23z"/>
</g>
</svg>
