<?xml version="1.0" encoding="UTF-8" standalone="no"?>
<!-- Created with Inkscape (http://www.inkscape.org/) -->
<svg
   xmlns:dc="http://purl.org/dc/elements/1.1/"
   xmlns:cc="http://creativecommons.org/ns#"
   xmlns:rdf="http://www.w3.org/1999/02/22-rdf-syntax-ns#"
   xmlns:svg="http://www.w3.org/2000/svg"
   xmlns="http://www.w3.org/2000/svg"
   xmlns:sodipodi="http://sodipodi.sourceforge.net/DTD/sodipodi-0.dtd"
   xmlns:inkscape="http://www.inkscape.org/namespaces/inkscape"
   id="svg2"
   sodipodi:version="0.32"
   inkscape:version="0.46"
   width="278.46503"
   height="473.57974"
   version="1.0"
   sodipodi:docbase="D:\obrazki\svg\anato\tractus_intestinalis\organa\gotowe"
   sodipodi:docname="Tractus_intestinalis_cecum.svg"
   inkscape:output_extension="org.inkscape.output.svg.inkscape">
  <metadata
     id="metadata7">
    <rdf:RDF>
      <cc:Work
         rdf:about="">
        <dc:format>image/svg+xml</dc:format>
        <dc:type
           rdf:resource="http://purl.org/dc/dcmitype/StillImage" />
      </cc:Work>
    </rdf:RDF>
  </metadata>
  <defs
     id="defs5">
    <inkscape:perspective
       sodipodi:type="inkscape:persp3d"
       inkscape:vp_x="0 : 281.25 : 1"
       inkscape:vp_y="0 : 1000 : 0"
       inkscape:vp_z="400 : 281.25 : 1"
       inkscape:persp3d-origin="200 : 187.5 : 1"
       id="perspective143" />
  </defs>
  <sodipodi:namedview
     inkscape:window-height="671"
     inkscape:window-width="1024"
     inkscape:pageshadow="2"
     inkscape:pageopacity="0.0"
     borderopacity="1.0"
     bordercolor="#666666"
     pagecolor="#ffffff"
     id="base"
     borderlayer="top"
     inkscape:zoom="1"
     inkscape:cx="110.82846"
     inkscape:cy="266.56194"
     inkscape:window-x="0"
     inkscape:window-y="63"
     inkscape:current-layer="layer6"
     showguides="true"
     inkscape:guide-bbox="true"
     showgrid="false" />
  <g
     inkscape:groupmode="layer"
     id="layer3"
     inkscape:label="g"
     style="display:inline"
     transform="translate(-63.981016,-22.540045)" />
  <g
     inkscape:groupmode="layer"
     id="layer2"
     inkscape:label="s"
     style="display:inline"
     transform="translate(-63.981016,-22.540045)" />
  <g
     inkscape:groupmode="layer"
     id="layer1"
     inkscape:label="d"
     style="display:inline"
     transform="translate(-63.981016,-22.540045)" />
  <g
     inkscape:groupmode="layer"
     id="layer4"
     inkscape:label="sc"
     style="display:inline"
     transform="translate(-63.981016,-22.540045)" />
  <g
     inkscape:groupmode="layer"
     id="layer7"
     inkscape:label="git2"
     style="display:inline"
     transform="translate(-63.981016,-22.540045)" />
  <g
     inkscape:groupmode="layer"
     id="layer6"
     inkscape:label="git"
     style="display:inline"
     transform="translate(-63.981016,-22.540045)">
    <g
       id="g28229"
       transform="matrix(1,0,0,0.922499,-5.000025,44.19004)" />
    <g
       id="g1496"
       transform="translate(-90.00002,0)">
      <g
         transform="translate(-2.78365,-380.2697)"
         id="g1387"
         style="stroke:#000000;stroke-width:1;stroke-miterlimit:4;stroke-dasharray:none;stroke-opacity:1;display:inline" />
      <g
         transform="matrix(-1,0,0,1,582.7837,-380.2697)"
         id="g1392"
         style="stroke:#000000;stroke-width:1;stroke-miterlimit:4;stroke-dasharray:none;stroke-opacity:1;display:inline" />
      <path
         id="path3267"
         style="fill:#e6e6e6;fill-opacity:1;fill-rule:evenodd;stroke:none;stroke-width:2;stroke-linecap:butt;stroke-linejoin:miter;marker:none;marker-start:none;marker-mid:none;marker-end:none;stroke-miterlimit:4;stroke-dashoffset:0;stroke-opacity:1;visibility:visible;display:inline;overflow:visible"
         d="M 280.71922,22.540045 C 274.01888,78.159079 270.54322,127.23677 307.21635,137.73032 C 317.76593,140.56365 319.6849,67.44033 311.21635,116.23032 C 290.19671,109.65375 292.38226,69.421263 297.49402,22.651363"
         sodipodi:nodetypes="cccc" />
      <path
         id="path2392"
         style="fill:#e6e6e6;fill-opacity:1;fill-rule:evenodd;stroke:none;stroke-width:2;stroke-linecap:butt;stroke-linejoin:miter;marker:none;marker-start:none;marker-mid:none;marker-end:none;stroke-miterlimit:4;stroke-dashoffset:0;stroke-opacity:1;visibility:visible;display:inline;overflow:visible"
         d="M 265.71635,212.73032 C 269.08598,226.13958 280.71726,219.06664 287.71635,223.23032 C 342.43273,255.7805 378.39983,183.09476 379.71635,149.73032 C 382.70371,73.02197 319.6849,67.44033 311.21635,116.23032 C 313.53365,123.39699 314.14395,130.56365 307.21635,137.73032 C 317.76593,140.56365 303.43968,196.89699 291.71635,194.23032 C 283.88302,186.28325 276.04968,186.86881 268.21635,192.23032 C 269.85769,199.06365 269.40274,205.89699 265.71635,212.73032 z"
         sodipodi:nodetypes="cssccccc" />
      <g
         transform="translate(-2.78365,-380.2697)"
         id="g14176"
         style="display:inline">
        <path
           id="path10655"
           style="fill:#ff6600;fill-opacity:1;fill-rule:evenodd;stroke:#000000;stroke-width:2;stroke-linecap:butt;stroke-linejoin:miter;marker:none;marker-start:none;marker-mid:none;marker-end:none;stroke-miterlimit:4;stroke-dashoffset:0;stroke-opacity:1;visibility:visible;display:inline;overflow:visible"
           d="M 283.37551,403.86943 C 276.75997,459.05105 273.55996,507.57315 310,518 C 320.54958,520.83333 306.22333,577.16667 294.5,574.5 C 286.66667,566.55293 278.83333,567.13849 271,572.5 C 272.64134,579.33333 272.18639,586.16667 268.5,593 C 271.86963,606.40926 283.50091,599.33632 290.5,603.5 C 345.21638,636.05018 381.18348,563.36444 382.5,530 C 385.48736,453.29165 322.46855,447.71001 314,496.5 C 293.12083,489.96737 295.13773,450.22715 300.17559,403.85778"
           sodipodi:nodetypes="cccccsscc" />
        <path
           style="opacity:1;fill:#000000;fill-opacity:1;fill-rule:evenodd;stroke:none;stroke-width:2;stroke-linecap:butt;stroke-linejoin:miter;marker:none;marker-start:none;marker-mid:none;marker-end:none;stroke-miterlimit:4;stroke-dasharray:none;stroke-dashoffset:0;stroke-opacity:1;visibility:visible;display:inline;overflow:visible"
           d="M 295.5,574.375 L 293.5,574.46875 L 293.875,581.1875 L 295.5,574.375 z"
           id="path14168"
           sodipodi:nodetypes="cccc" />
        <path
           style="opacity:1;fill:#000000;fill-opacity:1;fill-rule:evenodd;stroke:none;stroke-width:2;stroke-linecap:butt;stroke-linejoin:miter;marker:none;marker-start:none;marker-mid:none;marker-end:none;stroke-miterlimit:4;stroke-dasharray:none;stroke-dashoffset:0;stroke-opacity:1;visibility:visible;display:inline;overflow:visible"
           d="M 315.4375,495.65625 L 313.875,496.90625 C 315.58283,499.03566 315.74624,501.0631 315.78125,503.375 C 315.78125,503.375 317.51042,498.24088 315.4375,495.65625 z"
           id="path14172"
           sodipodi:nodetypes="cccc" />
      </g>
      <g
         transform="translate(-2.78365,-380.2697)"
         id="g20331"
         style="display:inline">
        <path
           style="opacity:1;fill:#6c535d;fill-opacity:1;fill-rule:evenodd;stroke:#000000;stroke-width:2;stroke-linecap:butt;stroke-linejoin:miter;marker:none;marker-start:none;marker-mid:none;marker-end:none;stroke-miterlimit:4;stroke-dasharray:none;stroke-dashoffset:0;stroke-opacity:1;visibility:visible;display:inline;overflow:visible"
           d="M 267,594.5 C 272.97029,587.16667 272.98271,579.83333 271,572.5 C 266.2866,557.05086 251.62411,559.60874 240.42081,564.82805 C 230.45828,569.46931 223.54502,575.4828 224,584 C 224.72428,597.55844 227.5006,610.67669 228.5,624 C 229.5577,638.10047 241.47477,636.28893 254.4986,636.34674 C 262.14201,636.38066 269.66662,637.50852 276,637 C 293.125,635.625 290.31799,620.57459 297,618.5 C 317.96322,611.99147 314.03669,585.83333 298.5,589 C 279.20151,590.57251 281.42851,611.21037 272.5,612.5 C 260.86016,614.18125 255.94389,616.68556 251.5,611 C 247.44389,605.81056 251.66667,599.5 250.5,593 C 256,597.10498 261.5,595.54565 267,594.5 z"
           id="path12413"
           sodipodi:nodetypes="ccsssssscsscc" />
        <path
           style="fill:none;fill-opacity:0.75;fill-rule:evenodd;stroke:#000000;stroke-width:1px;stroke-linecap:butt;stroke-linejoin:miter;stroke-opacity:1"
           d="M 299.75,588.5 C 288.3137,588.6589 287.86853,617.9242 303.875,615.375"
           id="path13288"
           sodipodi:nodetypes="cc" />
        <path
           transform="matrix(1.075105,0,0,1.065789,-23.19102,-40.27961)"
           style="fill:#f0c7b3;fill-opacity:1;fill-rule:evenodd;stroke:#000000;stroke-width:2;stroke-linecap:butt;stroke-linejoin:miter;marker:none;marker-start:none;marker-mid:none;marker-end:none;stroke-miterlimit:4;stroke-dashoffset:0;stroke-opacity:1;visibility:visible;display:inline;overflow:visible"
           d="M 307.75,602.75 C 305.31227,604.42063 305.1314,606.15761 306.67656,607.7019 C 306.0629,609.12587 303.36994,606.63291 304.29638,609.87178 C 301.92927,607.34254 302.24694,609.33858 301.89246,610.78087 C 301.27962,609.51304 300.86204,608.64231 298.43529,609.35804 C 297.88054,608.23504 300.72892,605.81272 297.23007,605.42896 C 297.05539,604.39586 299.87176,603.32539 296.96507,602.28086 C 298.6323,601.60346 298.8982,600.33817 297.4955,598.5012 C 299.02661,598.18965 300.56616,598.32194 299.04559,595.58764 C 300.65988,595.72205 301.96127,596.55696 302.125,593.78087 C 303.30383,593.78087 303.00312,596.34153 305.30263,595.57051 C 306.05529,596.49067 305.04844,598.17189 307.10426,598.58618 C 306.1047,599.99848 305.20273,601.51963 307.75,602.75 z"
           id="path15054"
           sodipodi:nodetypes="ccccccccccccc" />
      </g>
      <path
         sodipodi:nodetypes="cccc"
         id="path13290"
         d="M 243.71635,203.32407 C 243.71635,203.32407 244.73943,210.91371 247.40385,214.57407 L 249.02885,213.38657 C 246.32361,209.67015 244.39912,207.41861 243.71635,203.32407 z"
         style="fill:#000000;fill-opacity:1;fill-rule:evenodd;stroke:none;stroke-width:2;stroke-linecap:butt;stroke-linejoin:miter;marker:none;marker-start:none;marker-mid:none;marker-end:none;stroke-miterlimit:4;stroke-dashoffset:0;stroke-opacity:1;visibility:visible;display:inline;overflow:visible" />
      <g
         transform="translate(-2.78365,-380.2697)"
         id="g41841"
         style="display:inline">
        <g
           id="g40925">
          <path
             id="path40048"
             d="M 360.53125,652 L 337.46875,666 C 348.60836,684.37995 349.01894,701.61132 345.25,721.46875 L 371.75,726.53125 C 376.20572,703.05534 375.65486,676.95339 360.53125,652 z"
             style="opacity:1;fill:#668000;fill-opacity:1;fill-rule:evenodd;stroke:#000000;stroke-width:2;stroke-linecap:butt;stroke-linejoin:miter;marker:none;marker-start:none;marker-mid:none;marker-end:none;stroke-miterlimit:4;stroke-dasharray:none;stroke-dashoffset:0;stroke-opacity:1;visibility:visible;display:inline;overflow:visible" />
          <path
             id="path37409"
             d="M 301.96875,587.78125 C 301.79683,587.78344 301.64051,587.80374 301.46875,587.8125 C 294.20798,588.32783 288.66778,594.50722 288.9375,601.78125 C 289.20721,609.05527 295.18976,614.80505 302.46875,614.78125 C 302.98388,614.78837 308.66862,616.31197 314.28125,619.9375 C 319.89388,623.56303 325.8645,628.87915 330.03125,634.40625 C 333.25397,638.68112 335.26935,642.95396 336.0625,646.40625 C 333.66242,645.96129 331.32783,645.77233 329,645.78125 C 321.44005,645.81023 314.10761,648.00511 306.09375,650.9375 C 302.55235,652.11143 299.71593,654.6887 298.15625,657.96875 C 298.14126,657.98936 298.13991,658.01059 298.125,658.03125 C 298.11411,658.05446 298.10451,658.07047 298.09375,658.09375 C 298.08448,658.1067 298.07174,658.11203 298.0625,658.125 C 298.05782,658.13522 298.06716,658.14602 298.0625,658.15625 C 297.2504,659.29825 296.53295,660.52308 296.03125,661.78125 C 294.13355,666.54028 295.00117,670.58974 295.84375,673.1875 C 297.52892,678.38301 299.78364,680.91434 302.1875,684.03125 C 306.99522,690.26506 313.1315,697.01843 318.09375,703.9375 C 319.64445,706.09971 321.01418,708.2463 322.1875,710.3125 C 322.08298,710.3692 321.97963,710.41224 321.875,710.46875 C 320.75277,709.74733 319.61288,709.03093 318.46875,708.28125 C 312.74176,704.52872 306.66991,700.47197 300.40625,696.4375 C 300.39436,696.42984 300.38689,696.41391 300.375,696.40625 C 296.08953,692.37555 291.24886,688.80415 285.34375,686.3125 C 284.19553,685.82801 282.97724,685.39371 281.71875,685.03125 C 281.70817,685.0282 281.69808,685.03429 281.6875,685.03125 C 280.91407,684.59338 280.14876,684.14585 279.375,683.71875 C 265.82412,676.23899 252.47504,669.93536 237.90625,670.09375 C 230.62185,670.17295 222.70776,672.42962 216.5,677.65625 C 210.29224,682.88288 206.29092,690.39111 204.03125,699 C 201.04101,710.39222 206.60102,720.04524 212.9375,727.25 C 214.66526,729.21452 216.52868,731.10962 218.53125,732.90625 C 216.93981,732.93335 215.41986,733.01209 213.96875,733.09375 C 203.64974,733.67441 195.125,736.0625 195.125,736.0625 C 190.38456,737.26148 186.67354,740.93362 185.40625,745.65625 C 184.13896,750.37889 185.52791,755.40135 189.03125,758.8125 C 192.53459,762.22364 197.59408,763.48651 202.28125,762.09375 C 202.28125,762.09375 208.50314,760.42321 215.46875,760.03125 C 222.32552,759.64541 227.61464,761.73607 227.8125,761.84375 C 235.00987,770.70011 245.53038,775.15853 254.9375,775.5625 C 264.34462,775.96647 272.69278,773.28367 279.8125,770.09375 C 294.05194,763.71391 304.53125,754.25 304.53125,754.25 C 306.47765,752.58278 307.8784,750.45957 308.625,748.125 C 310.28668,749.90886 312.09124,751.59213 314.34375,753.21875 C 316.20388,754.56202 318.44277,756.00334 321.9375,756.78125 C 325.43223,757.55916 330.61544,757.02035 334.34375,754.625 C 336.3326,753.34722 338.17974,751.93782 339.875,750.4375 C 349.43806,753.30103 358.37015,753.70061 366.3125,750.03125 C 374.76308,746.12709 379.76,737.57825 380.96875,730.03125 C 383.12538,716.56605 378.70986,703.80183 368.875,694.6875 C 368.5812,694.26802 368.25392,693.86132 367.90625,693.46875 C 365.6335,690.90249 362.5919,689.41863 359.4375,689.03125 C 359.42848,689.02958 359.41527,689.0329 359.40625,689.03125 C 359.37531,689.02751 359.34346,689.03477 359.3125,689.03125 C 359.28722,689.02679 359.27531,689.00432 359.25,689 C 359.16409,688.99066 359.08606,688.97645 359,688.96875 C 358.97583,688.96509 358.96169,688.97228 358.9375,688.96875 C 358.92674,688.96784 358.91701,688.96964 358.90625,688.96875 C 356.47434,688.62063 353.92645,688.92532 351.59375,689.9375 C 349.07357,691.03102 346.98645,692.82125 345.5625,695.0625 C 345.36924,695.21812 345.16497,695.37554 344.96875,695.53125 C 343.39095,692.96749 341.70757,690.52486 340.03125,688.1875 C 339.2453,687.09162 338.45235,686.02187 337.65625,684.96875 C 341.60829,685.04848 345.33959,683.38876 347.9375,680.5 C 347.96084,680.4807 347.97671,680.45684 348,680.4375 C 348.04573,680.38604 348.11126,680.33347 348.15625,680.28125 C 358.38139,671.71093 363.73122,659.68521 363.40625,648.4375 C 363.06961,636.78585 358.00846,626.66524 351.59375,618.15625 C 345.17904,609.64726 337.18662,602.5786 328.9375,597.25 C 320.68838,591.9214 312.61409,587.94754 302.84375,587.8125 C 302.55748,587.79791 302.25528,587.7776 301.96875,587.78125 z M 237.65625,697.09375 C 237.8376,697.08693 238.01635,697.09595 238.21875,697.09375 C 240.78578,697.06584 244.79372,697.9649 249.625,699.6875 C 247.04623,706.65545 245.49304,713.00273 245.125,719.09375 C 240.00592,715.85527 235.78403,712.3543 233.21875,709.4375 C 231.10553,707.03472 230.62528,705.59441 230.4375,705.28125 C 230.43438,705.27645 230.40921,705.2541 230.40625,705.25 C 230.40063,705.24318 230.38012,705.22277 230.375,705.21875 C 231.60204,700.9754 233.03022,699.05007 233.90625,698.3125 C 234.76491,697.58955 235.51631,697.17419 237.65625,697.09375 z M 274,711.8125 C 276.85493,713.52699 279.7461,715.30595 282.65625,717.15625 C 284.69631,719.08194 286.89364,721.36538 289.03125,723.875 C 287.75862,724.17985 286.52766,724.44949 285.34375,724.65625 C 276.94358,726.12328 272.85779,724.51802 272.40625,724.40625 C 272.40346,724.40574 272.37727,724.40653 272.375,724.40625 C 272.3767,724.40899 272.37424,724.43515 272.375,724.4375 C 272.37169,724.43486 272.34761,724.41032 272.34375,724.40625 C 272.34146,724.40299 272.31489,724.3787 272.3125,724.375 C 272.31001,724.37083 272.31508,724.34841 272.3125,724.34375 C 272.30984,724.33859 272.28398,724.31819 272.28125,724.3125 C 272.27845,724.30626 272.28411,724.28805 272.28125,724.28125 C 272.17641,724.0152 272.02736,723.34916 272.03125,721.84375 C 272.03655,719.79054 272.54799,716.37892 274,711.8125 z M 353.84375,722.75 C 354.1657,723.92782 354.3401,724.93689 354.28125,725.5625 C 354.09596,725.59161 353.81223,725.64593 353.40625,725.65625 C 353.51274,724.75268 353.56357,723.86505 353.59375,722.96875 C 353.67975,722.90753 353.75795,722.81132 353.84375,722.75 z"
             style="opacity:1;fill:#668000;fill-opacity:1;fill-rule:evenodd;stroke:none;stroke-width:2;stroke-linecap:butt;stroke-linejoin:miter;marker:none;marker-start:none;marker-mid:none;marker-end:none;stroke-miterlimit:4;stroke-dasharray:none;stroke-dashoffset:0;stroke-opacity:1;visibility:visible;display:inline;overflow:visible" />
          <path
             sodipodi:nodetypes="ccssscscssscccc"
             id="path33889"
             d="M 294.31441,612.07468 C 296.58702,613.78432 299.41417,614.79124 302.46875,614.78125 C 302.98388,614.78837 308.66862,616.31197 314.28125,619.9375 C 319.89388,623.56303 325.8645,628.87915 330.03125,634.40625 C 334.198,639.93335 335.47878,645.60585 336.4375,649.21875 C 337.7377,654.11852 333.19889,656.92079 330.375,659.96875 C 324.50697,664.57688 323.48562,673.06947 328.09375,678.9375 C 332.70188,684.80553 341.19447,685.82688 347.0625,681.21875 C 358.01861,672.60554 363.74289,660.08915 363.40625,648.4375 C 363.06961,636.78585 358.00846,626.66524 351.59375,618.15625 C 345.17904,609.64726 337.18662,602.5786 328.9375,597.25 C 320.68838,591.9214 312.61409,587.94754 302.84375,587.8125 C 302.38571,587.78915 301.92679,587.78915 301.46875,587.8125 L 301.46875,587.8125 C 296.71409,588.44326 292.42416,590.03874 289,592"
             style="opacity:1;fill:#ffcc00;fill-opacity:1;fill-rule:evenodd;stroke:#000000;stroke-width:2;stroke-linecap:butt;stroke-linejoin:miter;marker:none;marker-start:none;marker-mid:none;marker-end:none;stroke-miterlimit:4;stroke-dasharray:none;stroke-dashoffset:0;stroke-opacity:1;visibility:visible;display:inline;overflow:visible" />
          <path
             sodipodi:nodetypes="cssscsscsssscs"
             id="path33891"
             d="M 259.4691,748.36026 C 258.22188,748.55549 257.0805,748.63613 256.09375,748.59375 C 252.92199,748.45754 251.39562,748.02948 248.78125,744.8125 C 238.75984,732.48116 224.28776,732.51309 213.96875,733.09375 C 203.64974,733.67441 195.125,736.0625 195.125,736.0625 C 190.38456,737.26148 186.66287,740.92984 185.39558,745.65247 C 184.12829,750.37511 185.5135,755.41386 189.01684,758.82501 C 192.52019,762.23615 197.59408,763.48651 202.28125,762.09375 C 202.28125,762.09375 208.50314,760.42321 215.46875,760.03125 C 222.43436,759.63929 227.77641,761.79934 227.8125,761.84375 C 235.00987,770.70011 245.53038,775.15853 254.9375,775.5625 C 264.34462,775.96647 272.69278,773.28367 279.8125,770.09375 C 294.05194,763.71391 304.53125,754.25 304.53125,754.25 C 306.52952,752.53835 307.93418,750.33024 308.6658,747.92291"
             style="opacity:1;fill:none;fill-opacity:1;fill-rule:evenodd;stroke:#000000;stroke-width:2;stroke-linecap:butt;stroke-linejoin:miter;marker:none;marker-start:none;marker-mid:none;marker-end:none;stroke-miterlimit:4;stroke-dasharray:none;stroke-dashoffset:0;stroke-opacity:1;visibility:visible;display:inline;overflow:visible" />
          <path
             sodipodi:nodetypes="cscssscsscsscsscscssss"
             id="path33897"
             d="M 244.70368,718.80745 C 239.77915,715.64755 235.71129,712.27159 233.21875,709.4375 C 230.84601,706.73964 230.52656,705.25725 230.375,705.21875 C 231.60204,700.9754 233.03022,699.05007 233.90625,698.3125 C 234.83768,697.52828 235.62799,697.12192 238.21875,697.09375 C 240.8734,697.06489 245.05705,698.0348 250.11143,699.8737 M 323.03159,711.2332 C 321.53369,710.27698 320.00914,709.29057 318.46875,708.28125 C 313.06385,704.73977 307.34547,700.92265 301.45419,697.11317 M 341.27458,750.85729 C 350.30994,753.34603 358.75896,753.52098 366.3125,750.03125 C 374.76308,746.12709 379.76,737.57825 380.96875,730.03125 C 383.38625,714.93725 377.57656,700.70536 365.09375,691.53125 C 361.21156,688.61092 356.05977,688.00138 351.60326,689.9351 C 349.23504,690.96269 347.25722,692.62428 345.84572,694.68069 M 284.3353,686.32181 C 282.51781,685.26102 281.19647,684.72416 279.375,683.71875 C 265.82412,676.23899 252.47504,669.93536 237.90625,670.09375 C 230.62185,670.17295 222.70776,672.42962 216.5,677.65625 C 210.29224,682.88288 206.29092,690.39111 204.03125,699 C 201.04101,710.39222 206.60102,720.04524 212.9375,727.25 C 214.64205,729.18813 216.48907,731.0426 218.46133,732.81727"
             style="opacity:1;fill:none;fill-opacity:1;fill-rule:evenodd;stroke:#000000;stroke-width:2;stroke-linecap:butt;stroke-linejoin:miter;marker:none;marker-start:none;marker-mid:none;marker-end:none;stroke-miterlimit:4;stroke-dasharray:none;stroke-dashoffset:0;stroke-opacity:1;visibility:visible;display:inline;overflow:visible" />
          <path
             sodipodi:nodetypes="ccccsssscscccsssc"
             id="path34774"
             d="M 336.65625,646.53125 C 334.04554,646.00527 331.51998,645.77159 329,645.78125 C 321.44005,645.81023 313.60761,648.50511 305.59375,651.4375 M 250.96875,696.46875 C 247.47246,705.36719 245.05074,714.20063 245.03125,721.75 C 245.01176,729.29937 247.34303,736.9663 252.34375,742.5 C 262.34519,753.5674 276.79365,753.55093 289.96875,751.25 C 295.37359,750.30608 300.94067,748.87385 306.55057,747.03879 M 322.56146,710.11899 C 320.06458,711.48067 317.53361,712.78931 315.00076,714.02779 M 353.58074,722.95559 C 358.29381,719.60055 362.72006,716.09965 366.75,712.53125 M 289.42412,723.7919 C 288.01206,724.13857 286.64886,724.42832 285.34375,724.65625 C 276.2317,726.2476 272.20308,724.216 272.375,724.40625 C 272.46096,724.50137 272.02434,724.52003 272.03125,721.84375 C 272.03816,719.16747 272.90465,715.68782 275.59375,708.84375"
             style="opacity:1;fill:none;fill-opacity:1;fill-rule:evenodd;stroke:#000000;stroke-width:2;stroke-linecap:butt;stroke-linejoin:miter;marker:none;marker-start:none;marker-mid:none;marker-end:none;stroke-miterlimit:4;stroke-dasharray:none;stroke-dashoffset:0;stroke-opacity:1;visibility:visible;display:inline;overflow:visible" />
          <path
             sodipodi:nodetypes="cssssscsssccssssssss"
             id="path35654"
             d="M 305.90625,651.625 C 302.59029,652.73767 297.92895,657.02222 296.03125,661.78125 C 294.13355,666.54028 295.00117,670.58974 295.84375,673.1875 C 297.52892,678.38301 299.78364,680.91434 302.1875,684.03125 C 306.99522,690.26506 313.1315,697.01843 318.09375,703.9375 C 323.056,710.85657 326.25965,717.75323 326.59375,721.625 C 326.77181,723.68845 326.83112,725.14379 325.8125,726.75 C 321.65398,721.75944 316.06792,713.94462 309.59375,706.34375 C 302.99837,698.60058 295.84173,690.7421 285.34375,686.3125 C 280.09476,684.0977 273.54841,682.9788 267.03125,684.59375 C 260.51409,686.2087 255.28955,691.35152 250.84375,696.6875 M 274.84375,711.1875 C 277.4922,712.30501 283.44728,717.31925 289.03125,723.875 C 294.61522,730.43075 300.11945,738.13376 305.46875,744.5 C 308.1434,747.68312 310.62348,750.53221 314.34375,753.21875 C 316.20388,754.56202 318.44277,756.00334 321.9375,756.78125 C 325.43223,757.55916 330.61544,757.02035 334.34375,754.625 C 347.74229,746.01677 354.57913,731.81804 353.5,719.3125 C 352.42087,706.80696 346.21068,696.80373 340.03125,688.1875 C 339.01023,686.76385 337.97418,685.37359 336.9399,684.02372"
             style="opacity:1;fill:none;fill-opacity:1;fill-rule:evenodd;stroke:#000000;stroke-width:2;stroke-linecap:butt;stroke-linejoin:miter;marker:none;marker-start:none;marker-mid:none;marker-end:none;stroke-miterlimit:4;stroke-dasharray:none;stroke-dashoffset:0;stroke-opacity:1;visibility:visible;display:inline;overflow:visible" />
          <path
             sodipodi:nodetypes="cssssssss"
             id="path38296"
             d="M 274.84375,711.1875 C 277.4922,712.30501 283.44728,717.31925 289.03125,723.875 C 294.61522,730.43075 300.11945,738.13376 305.46875,744.5 C 308.1434,747.68312 310.62348,750.53221 314.34375,753.21875 C 316.20388,754.56202 318.44277,756.00334 321.9375,756.78125 C 325.43223,757.55916 330.61544,757.02035 334.34375,754.625 C 347.74229,746.01677 354.57913,731.81804 353.5,719.3125 C 352.42087,706.80696 346.21068,696.80373 340.03125,688.1875 C 339.01023,686.76385 337.97418,685.37359 336.9399,684.02372"
             style="opacity:1;fill:none;fill-opacity:1;fill-rule:evenodd;stroke:#000000;stroke-width:2;stroke-linecap:butt;stroke-linejoin:miter;marker:none;marker-start:none;marker-mid:none;marker-end:none;stroke-miterlimit:4;stroke-dasharray:none;stroke-dashoffset:0;stroke-opacity:1;visibility:visible;display:inline;overflow:visible" />
          <path
             sodipodi:nodetypes="cssscsssscccsssssssc"
             id="path38298"
             d="M 331.15625,659.59375 C 327.94253,661.30539 324.86214,661.48688 319.46875,660.15625 C 314.07536,658.82562 307.14383,655.66219 299.65625,651.90625 C 292.16867,648.15031 284.14375,643.85655 275.21875,640.9375 C 270.75625,639.47797 265.90158,638.32653 260.84375,638.03125 C 255.78592,637.73597 250.51258,638.30155 245.25,640.1875 C 238.98161,642.43391 233.33934,646.2044 227.21875,652.125 C 221.09816,658.0456 214.89458,666.17978 213.0625,677.15625 C 211.23042,688.13272 215.40665,701.08363 225.53125,711.125 C 235.65585,721.16637 251.04071,729.58457 274.25,737.3125 C 278.85584,738.93655 293.97969,737.94667 297.64916,734.7239 C 297.3521,731.00532 285.67016,713.04522 281.75,711.6875 C 260.86777,704.7344 250.04449,697.40567 244.5625,691.96875 C 239.08051,686.53183 239.23764,684.28898 239.6875,681.59375 C 240.13736,678.89852 242.54653,674.87188 246,671.53125 C 249.45347,668.19062 254.37361,665.59425 254.375,665.59375 C 257.21601,664.57561 260.98261,664.687 266.8125,666.59375 C 272.64239,668.5005 279.82324,672.14906 287.5625,676.03125 C 295.30176,679.91344 303.61137,684.05869 313,686.375 C 322.38863,688.69131 333.63704,688.84237 343.84375,683.40625"
             style="opacity:1;fill:#668000;fill-opacity:1;fill-rule:evenodd;stroke:#000000;stroke-width:2;stroke-linecap:butt;stroke-linejoin:miter;marker:none;marker-start:none;marker-mid:none;marker-end:none;stroke-miterlimit:4;stroke-dasharray:none;stroke-dashoffset:0;stroke-opacity:1;visibility:visible;display:inline;overflow:visible" />
        </g>
        <path
           style="opacity:1;fill:#000000;fill-opacity:1;fill-rule:evenodd;stroke:none;stroke-width:2;stroke-linecap:butt;stroke-linejoin:miter;marker:none;marker-start:none;marker-mid:none;marker-end:none;stroke-miterlimit:4;stroke-dasharray:none;stroke-dashoffset:0;stroke-opacity:1;visibility:visible;display:inline;overflow:visible"
           d="M 280.75,711.25 L 282.75,703.5 L 282.25,711.5 L 287.5,707 L 283.25,712.25 L 280.75,711.25 z"
           id="path40956" />
        <path
           style="opacity:1;fill:#000000;fill-opacity:1;fill-rule:evenodd;stroke:none;stroke-width:2;stroke-linecap:butt;stroke-linejoin:miter;marker:none;marker-start:none;marker-mid:none;marker-end:none;stroke-miterlimit:4;stroke-dasharray:none;stroke-dashoffset:0;stroke-opacity:1;visibility:visible;display:inline;overflow:visible"
           d="M 325.25,726.5 L 325.25,736.75 L 326.75,729.25 L 331.25,730.5 L 326.5,726.75"
           id="path41831" />
        <path
           style="opacity:1;fill:#000000;fill-opacity:1;fill-rule:evenodd;stroke:none;stroke-width:2;stroke-linecap:butt;stroke-linejoin:miter;marker:none;marker-start:none;marker-mid:none;marker-end:none;stroke-miterlimit:4;stroke-dasharray:none;stroke-dashoffset:0;stroke-opacity:1;visibility:visible;display:inline;overflow:visible"
           d="M 330.75,660 L 333,666.75 L 332.5,659.25"
           id="path41833" />
        <path
           style="opacity:1;fill:#000000;fill-opacity:1;fill-rule:evenodd;stroke:none;stroke-width:2;stroke-linecap:butt;stroke-linejoin:miter;marker:none;marker-start:none;marker-mid:none;marker-end:none;stroke-miterlimit:4;stroke-dasharray:none;stroke-dashoffset:0;stroke-opacity:1;visibility:visible;display:inline;overflow:visible"
           d="M 336.75,651 L 343.25,651 L 337,652.75"
           id="path41835" />
        <path
           style="opacity:1;fill:#000000;fill-opacity:1;fill-rule:evenodd;stroke:none;stroke-width:2;stroke-linecap:butt;stroke-linejoin:miter;marker:none;marker-start:none;marker-mid:none;marker-end:none;stroke-miterlimit:4;stroke-dasharray:none;stroke-dashoffset:0;stroke-opacity:1;visibility:visible;display:inline;overflow:visible"
           d="M 251,747.25 L 249,757.25 L 252.25,748.5 L 253.5,753.5 L 254.25,748.5"
           id="path41837" />
        <path
           style="opacity:1;fill:#000000;fill-opacity:1;fill-rule:evenodd;stroke:none;stroke-width:2;stroke-linecap:butt;stroke-linejoin:miter;marker:none;marker-start:none;marker-mid:none;marker-end:none;stroke-miterlimit:4;stroke-dasharray:none;stroke-dashoffset:0;stroke-opacity:1;visibility:visible;display:inline;overflow:visible"
           d="M 227,761.25 L 231.5,755.25 L 229,762"
           id="path41839" />
      </g>
      <path
         style="opacity:1;fill:#e6e6e6;fill-opacity:1;fill-rule:evenodd;stroke:none;stroke-width:1.92093623;stroke-linecap:butt;stroke-linejoin:miter;marker:none;marker-start:none;marker-mid:none;marker-end:none;stroke-miterlimit:4;stroke-dasharray:none;stroke-dashoffset:0;stroke-opacity:1;visibility:visible;display:inline;overflow:visible"
         d="M 171.56659,379.05669 C 171.36289,385.53733 176.07217,388.65769 180.71635,390.70543 C 191.34918,403.24872 216.9773,394.37325 204.2476,370.69873 C 204.83507,365.68034 203.32029,362.66585 197.56523,361.49015 C 197.94397,358.86149 168.23803,376.87106 171.56659,379.05669 z"
         id="path5018"
         sodipodi:nodetypes="ccccc" />
      <g
         transform="translate(-2.78365,-380.2697)"
         id="g33001">
        <path
           style="opacity:1;fill:#e6e6e6;fill-opacity:1;fill-rule:evenodd;stroke:none;stroke-width:1.92093623;stroke-linecap:butt;stroke-linejoin:miter;marker:none;marker-start:none;marker-mid:none;marker-end:none;stroke-miterlimit:4;stroke-dasharray:none;stroke-dashoffset:0;stroke-opacity:1;visibility:visible;display:inline;overflow:visible"
           d="M 182.46875,613.34309 C 178.15357,612.77232 174.44702,614.08976 175.043,618.48429 C 173.75096,623.84579 171.33444,623.14557 169.70557,625.16055 C 164.46447,628.1186 161.43725,632.47379 164.44263,638.54621 C 160.12065,641.67893 162.56576,644.99555 163.03125,648.45571 C 157.82305,652.7378 161.19121,657.08826 161.94527,661.5057 C 156.58949,666.2866 159.78827,671.14597 160.57637,676.08202 C 157.52551,679.78459 158.01412,683.53032 159.76065,687.31845 C 157.65618,691.59795 157.48036,695.93157 159.40054,700.31825 C 156.14009,704.74442 158.36271,709.22462 159.98987,713.75772 C 156.44598,717.96098 158.28027,722.20972 161.71004,726.50308 C 158.94851,730.4691 161.30042,734.4732 164.5625,738.51468 C 164.33772,742.61604 163.23806,746.29953 168.78697,749.61708 C 168.4086,754.25367 171.02168,757.14074 174.35024,759.32637 C 189.2384,763.95939 195.05369,744.48816 200.34888,741.75983 C 200.72762,739.13117 199.35208,735.7786 195.4375,730.84641 C 196.59607,726.8102 196.68728,722.73525 192.79929,718.6128 C 194.31875,714.73667 195.38642,710.81855 191.72466,706.85113 C 194.00867,702.44892 195.60963,697.98601 191.72731,693.45247 C 193.60446,689.9008 194.97172,686.30576 192.3318,682.66259 C 195.26327,674.78343 192.65623,671.5486 189.57762,667.6675 C 189.82122,664.89577 190.06589,662.09471 190.2977,659.26245 C 190.54089,656.29106 194.76993,653.28532 194.96875,650.24305 C 195.70004,639.05284 197.82746,639.25638 197.28125,639.519 C 196.70508,639.89218 187.71426,608.9472 182.46875,613.34309 z"
           id="path29493"
           sodipodi:nodetypes="ccccccccccccccccccccccccc" />
        <path
           style="opacity:1;fill:#e6e6e6;fill-opacity:1;fill-rule:evenodd;stroke:none;stroke-width:1.92093623;stroke-linecap:butt;stroke-linejoin:miter;marker:none;marker-start:none;marker-mid:none;marker-end:none;stroke-miterlimit:4;stroke-dasharray:none;stroke-dashoffset:0;stroke-opacity:1;visibility:visible;display:inline;overflow:visible"
           d="M 387.3125,573.56033 C 385.15777,571.42855 372.86132,569.32356 366.64743,573.54176 C 359.52676,572.57435 354.91806,577.484 352.15625,583.53485 C 343.84976,587.7927 341.2916,593.39547 339.4656,598.52427 C 332.42072,599.8911 328.59677,604.04062 326.10262,609.10254 C 319.98275,609.73389 315.08607,612.64724 310.50684,616.1585 C 302.3265,615.06582 297.66916,617.6138 292.59375,619.62762 C 289.88742,617.36917 275.90279,618.39861 271.91338,619.91723 C 266.24655,617.2512 260.36418,616.15013 254.28889,618.23271 C 249.23958,614.95765 244.05701,615.13728 238.75415,615.953 C 235.96997,613.58945 232.47601,611.90331 225.81277,613.76276 C 220.77022,611.0862 216.24379,610.56086 212,611.32513 C 208.72166,607.12945 203.50838,607.041 197.31856,609.7538 C 192.74581,607.43791 187.71426,608.9472 182.46875,613.34309 C 178.15357,612.77232 197.82746,639.25638 197.28125,639.519 C 196.70508,639.89218 199.22323,642.26876 206,640.32619 C 209.20294,643.83737 214.11659,643.43827 219.18132,642.69148 C 223.72404,644.94723 228.27103,646.53286 232.82216,645.07886 C 236.68951,648.00992 241.00701,649.24993 246.21212,647.1489 C 250.15891,649.23097 254.36972,650.5129 259.64576,648.7416 C 265.72249,651.54668 271.80606,652.37266 277.89617,649.75375 C 283.94528,652.64842 290.00083,651.65416 296.0625,648.97462 C 301.62017,651.03669 307.16323,650.9583 312.6509,646.08368 C 318.49746,647.22985 324.28116,646.17951 329.95266,640.19798 C 334.15346,639.32762 338.29271,639.87108 342.35038,633.82526 C 348.25602,632.03343 354.09072,629.97274 358.3533,622.24495 C 362.88211,620.80285 367.77095,619.36756 367.55685,613.40694 C 371.39635,607.44403 383.0007,604.83383 385.78125,613.63138 C 383.18314,622.4882 398.11384,572.77155 387.3125,573.56033 z"
           id="path31245"
           sodipodi:nodetypes="ccccccccccccccccccccccccccccc" />
        <path
           style="opacity:1;fill:#e6e6e6;fill-opacity:1;fill-rule:evenodd;stroke:none;stroke-width:1.92093623;stroke-linecap:butt;stroke-linejoin:miter;marker:none;marker-start:none;marker-mid:none;marker-end:none;stroke-miterlimit:4;stroke-dasharray:none;stroke-dashoffset:0;stroke-opacity:1;visibility:visible;display:inline;overflow:visible"
           d="M 419.36897,753.62915 C 429.03886,749.54803 428.73187,748.17109 428.09375,741.45245 C 433.0575,736.87945 432.60403,733.31893 430.75,728.30684 C 433.80639,723.29474 434.82485,717.34275 431.9375,710.57756 C 434.73208,705.90951 435.23573,700.86373 432.23116,695.53763 C 434.68509,690.9437 433.76026,687.40699 430.61645,682.17629 C 433.09104,676.42572 433.49182,670.68284 429.21983,665.01308 C 432.33726,657.73204 433.16617,650.57159 426.55139,643.6703 C 427.04102,636.06813 429.33519,631.08667 422.13917,624.29864 C 421.36408,621.32721 418.52723,618.45153 417.62302,615.68714 C 420.01423,611.65482 419.70836,605.55302 415.21875,602.04248 C 417.18336,598.84817 414.10588,596.70881 411.33057,594.64729 C 412.95161,587.25345 406.67043,584.49499 401.10854,581.90398 C 398.30868,577.61526 398.11384,572.77155 387.3125,573.56033 C 385.15777,571.42855 383.0007,604.83383 385.78125,613.63138 C 383.18314,622.4882 387.41165,635.82336 392.85475,643.88471 C 389.89961,651.12685 392.80173,657.80252 396.21563,664.61305 C 393.60607,670.02361 395.43825,674.50168 397.95639,678.83682 C 394.83151,685.59136 397.89772,687.67485 400.22223,693.04517 C 397.88692,698.99072 397.13787,704.55865 399.9375,709.56858 C 397.03427,715.86147 398.14537,721.29494 398.90625,725.33754 C 398.46275,729.38015 397.59069,732.53959 397.90625,731.70855 C 390.93806,737.36428 391.4834,742.06813 389.93547,745.76994 C 381.59537,747.75735 417.70996,759.2882 419.36897,753.62915 z"
           id="path32120"
           sodipodi:nodetypes="cccccccccccccccccccccccc" />
        <path
           style="opacity:1;fill:#e6e6e6;fill-opacity:1;fill-rule:evenodd;stroke:none;stroke-width:1.92093623;stroke-linecap:butt;stroke-linejoin:miter;marker:none;marker-start:none;marker-mid:none;marker-end:none;stroke-miterlimit:4;stroke-dasharray:none;stroke-dashoffset:0;stroke-opacity:1;visibility:visible;display:inline;overflow:visible"
           d="M 300.40625,797.89385 C 300.86132,796.90903 300.94982,796.78305 302.15625,796.51011 C 303.39459,796.47012 306.15205,802.38717 314.09873,800.20316 C 317.23115,804.35954 327.06873,806.00092 333.96875,805.55367 C 338.08418,811.13175 341.5818,805.61468 348.1334,805.01754 C 349.67791,809.19027 356.61782,810.23431 365.23151,804.63325 C 370.35749,804.09198 375.76768,805.63899 379.41918,797.40546 C 385.4997,797.06648 390.23546,792.96969 392.88499,784.85291 C 399.99593,783.2044 404.08357,775.02858 405.78712,768.69008 C 408.44668,766.24914 410.11873,767.51094 411.88689,766.17128 C 415.26953,763.60838 417.70996,759.2882 419.36897,753.62915 C 429.03886,749.54803 391.4834,742.06813 389.93547,745.76994 C 381.59537,747.75735 379.04123,755.84554 377.96875,758.73228 C 373.56249,757.65373 366.72497,761.41996 364.81018,768.7633 C 358.64266,769.96918 353.77616,770.81678 351.09287,771.40772 C 348.08017,765.68238 342.55445,764.81698 335.42657,767.7326 C 332.82138,760.45845 323.03747,766.84403 319.62818,769.52734 C 311.70186,761.96174 303.07763,762.82548 294.53125,767.82615 C 283.83941,770.24512 299.95118,798.87868 300.40625,797.89385 z"
           id="path32124"
           sodipodi:nodetypes="cccccccccsccccccccc" />
        <path
           style="opacity:1;fill:#e6e6e6;fill-opacity:1;fill-rule:evenodd;stroke:none;stroke-width:1.92093623;stroke-linecap:butt;stroke-linejoin:miter;marker:none;marker-start:none;marker-mid:none;marker-end:none;stroke-miterlimit:4;stroke-dasharray:none;stroke-dashoffset:0;stroke-opacity:1;visibility:visible;display:inline;overflow:visible"
           d="M 289.12109,873.45779 C 286.46265,875.53853 298.28155,876.53252 296.45769,873.57942 C 294.63383,870.62631 298.44123,869.75588 299.8767,868.80518 C 304.68007,865.62397 308.65681,859.40479 310,852.55192 C 313.38762,835.26856 307.3368,819.33459 300.90625,804.17838 C 299.54209,800.96317 299.95118,798.87868 300.40625,797.89385 C 300.86132,796.90903 300.94982,796.78305 302.15625,796.51011 C 303.39459,796.47012 303.07763,762.82548 294.53125,767.82615 C 283.83941,770.24512 275.06191,777.47568 270.96875,786.33379 C 266.87559,795.1919 267.05869,805.44983 271.09375,814.96009 C 276.13608,826.84438 272.27627,826.66482 278,851.45645 C 280.18096,860.90302 283.52722,866.43246 287.25728,869.08468 C 288.93413,870.27698 291.77953,871.37704 289.12109,873.45779 z"
           id="path32126"
           sodipodi:nodetypes="ccccccccccccc" />
      </g>
      <path
         sodipodi:nodetypes="csc"
         id="path28237"
         d="M 196.26691,394.41146 C 203.48912,400.00335 201.21081,415.48369 203.33798,414.30678 C 208.98229,411.1839 205.44404,400.28572 201.57021,392.78069"
         style="fill:#ff6600;fill-opacity:1;fill-rule:evenodd;stroke:#000000;stroke-width:1.92093622999999990;stroke-linecap:butt;stroke-linejoin:miter;marker:none;marker-start:none;marker-mid:none;marker-end:none;stroke-miterlimit:4;stroke-dasharray:none;stroke-dashoffset:0;stroke-opacity:1;visibility:visible;display:inline;overflow:visible" />
      <path
         sodipodi:nodetypes="ccccccccccccccscccccccccccccccccccccccccccccccccccccccccccccccccccccccccccccccccccccccccccccccccccc"
         id="path16806"
         d="M 286.33744,493.18811 C 283.679,495.26885 295.4979,496.26284 293.67404,493.30974 C 291.85018,490.35663 295.65758,489.4862 297.09305,488.5355 C 301.89642,485.35429 305.87316,479.13511 307.21635,472.28224 C 310.60397,454.99888 304.55315,439.06491 298.1226,423.9087 C 296.75844,420.69349 297.16753,418.609 297.6226,417.62417 C 298.07767,416.63935 298.16617,416.51337 299.3726,416.24043 C 300.61094,416.20044 303.3684,422.11749 311.31508,419.93348 C 314.4475,424.08986 324.28508,425.73124 331.1851,425.28399 C 335.30053,430.86207 338.79815,425.345 345.34975,424.74786 C 346.89426,428.92059 353.83417,429.96463 362.44786,424.36357 C 367.57384,423.8223 372.98403,425.36931 376.63553,417.13578 C 382.71605,416.7968 387.45181,412.70001 390.10134,404.58323 C 397.21228,402.93472 401.29992,394.7589 403.00347,388.4204 C 405.66303,385.97946 407.33508,387.24126 409.10324,385.9016 C 412.48588,383.3387 414.92631,379.01852 416.58532,373.35947 C 426.25521,369.27835 425.94822,367.90141 425.3101,361.18277 C 430.27385,356.60977 429.82038,353.04925 427.96635,348.03716 C 431.02274,343.02506 432.0412,337.07307 429.15385,330.30788 C 431.94843,325.63983 432.45208,320.59405 429.44751,315.26795 C 431.90144,310.67402 430.97661,307.13731 427.8328,301.90661 C 430.30739,296.15604 430.70817,290.41316 426.43618,284.7434 C 429.55361,277.46236 430.38252,270.30191 423.76774,263.40062 C 424.25737,255.79845 426.55154,250.81699 419.35552,244.02896 C 418.58043,241.05753 415.74358,238.18185 414.83937,235.41746 C 417.23058,231.38514 416.92471,225.28334 412.4351,221.7728 C 414.39971,218.57849 411.32223,216.43913 408.54692,214.37761 C 410.16796,206.98377 403.88678,204.22531 398.32489,201.6343 C 395.52503,197.34558 395.33019,192.50187 384.52885,193.29065 C 382.37412,191.15887 370.07767,189.05388 363.86378,193.27208 C 356.74311,192.30467 352.13441,197.21432 349.3726,203.26517 C 341.06611,207.52302 338.50795,213.12579 336.68195,218.25459 C 329.63707,219.62142 325.81312,223.77094 323.31897,228.83286 C 317.1991,229.46421 312.30242,232.37756 307.72319,235.88882 C 299.54285,234.79614 294.88551,237.34412 289.8101,239.35794 C 287.10377,237.09949 273.11914,238.12893 269.12973,239.64755 C 263.4629,236.98152 257.58053,235.88045 251.50524,237.96303 C 246.45593,234.68797 241.27336,234.8676 235.9705,235.68332 C 233.18632,233.31977 229.69236,231.63363 223.02912,233.49308 C 217.98657,230.81652 213.46014,230.29118 209.21635,231.05545 C 205.93801,226.85977 200.72473,226.77132 194.53491,229.48412 C 189.96216,227.16823 184.93061,228.67752 179.6851,233.07341 C 175.36992,232.50264 171.66337,233.82008 172.25935,238.21461 C 170.96731,243.57611 168.55079,242.87589 166.92192,244.89087 C 161.68082,247.84892 158.6536,252.20411 161.65898,258.27653 C 157.337,261.40925 159.78211,264.72587 160.2476,268.18603 C 155.0394,272.46812 158.40756,276.81858 159.16162,281.23602 C 153.80584,286.01692 157.00462,290.87629 157.79272,295.81234 C 154.74186,299.51491 155.23047,303.26064 156.977,307.04877 C 154.87253,311.32827 154.69671,315.66189 156.61689,320.04857 C 153.35644,324.47474 155.57906,328.95494 157.20622,333.48804 C 153.66233,337.6913 155.49662,341.94004 158.92639,346.2334 C 156.16486,350.19942 158.51677,354.20352 161.77885,358.245 C 161.55407,362.34636 160.45441,366.02985 166.00332,369.3474 C 165.62495,373.98399 168.23803,376.87106 171.56659,379.05669 C 171.36289,385.53733 176.07217,388.65769 180.71635,390.70543 C 191.34918,403.24872 216.9773,394.37325 204.2476,370.69873 C 204.83507,365.68034 203.32029,362.66585 197.56523,361.49015 C 197.94397,358.86149 196.56843,355.50892 192.65385,350.57673 C 193.81242,346.54052 193.90363,342.46557 190.01564,338.34312 C 191.5351,334.46699 192.60277,330.54887 188.94101,326.58145 C 191.22502,322.17924 192.82598,317.71633 188.94366,313.18279 C 190.82081,309.63112 192.18807,306.03608 189.54815,302.39291 C 192.47962,294.51375 189.87258,291.27892 186.79397,287.39782 C 187.03757,284.62609 187.28224,281.82503 187.51405,278.99277 C 187.75724,276.02138 191.98628,273.01564 192.1851,269.97337 C 192.91639,258.78316 195.04381,258.9867 194.4976,259.24932 C 193.92143,259.6225 196.43958,261.99908 203.21635,260.05651 C 206.41929,263.56769 211.33294,263.16859 216.39767,262.4218 C 220.94039,264.67755 225.48738,266.26318 230.03851,264.80918 C 233.90586,267.74024 238.22336,268.98025 243.42847,266.87922 C 247.37526,268.96129 251.58607,270.24322 256.86211,268.47192 C 262.93884,271.277 269.02241,272.10298 275.11252,269.48407 C 281.16163,272.37874 287.21718,271.38448 293.27885,268.70494 C 298.83652,270.76701 304.37958,270.68862 309.86725,265.814 C 315.71381,266.96017 321.49751,265.90983 327.16901,259.9283 C 331.36981,259.05794 335.50906,259.6014 339.56673,253.55558 C 345.47237,251.76375 351.30707,249.70306 355.56965,241.97527 C 360.09846,240.53317 364.9873,239.09788 364.7732,233.13726 C 368.6127,227.17435 380.21705,224.56415 382.9976,233.3617 C 380.39949,242.21852 384.628,255.55368 390.0711,263.61503 C 387.11596,270.85717 390.01808,277.53284 393.43198,284.34337 C 390.82242,289.75393 392.6546,294.232 395.17274,298.56714 C 392.04786,305.32168 395.11407,307.40517 397.43858,312.77549 C 395.10327,318.72104 394.35422,324.28897 397.15385,329.2989 C 394.25062,335.59179 395.36172,341.02526 396.1226,345.06786 C 395.6791,349.11047 394.80704,352.26991 395.1226,351.43887 C 388.15441,357.0946 388.69975,361.79845 387.15182,365.50026 C 378.81172,367.48767 376.25758,375.57586 375.1851,378.4626 C 370.77884,377.38405 363.94132,381.15028 362.02653,388.49362 C 355.85901,389.6995 350.99251,390.5471 348.30922,391.13804 C 345.29652,385.4127 339.7708,384.5473 332.64292,387.46292 C 330.03773,380.18877 320.25382,386.57435 316.84453,389.25766 C 308.91821,381.69206 300.29398,382.5558 291.7476,387.55647 C 281.05576,389.97544 272.27826,397.206 268.1851,406.06411 C 264.09194,414.92222 264.27504,425.18015 268.3101,434.69041 C 273.35243,446.5747 269.49262,446.39514 275.21635,471.18677 C 277.39731,480.63334 280.74357,486.16278 284.47363,488.815 C 286.15048,490.0073 288.99588,491.10736 286.33744,493.18811 z"
         style="fill:#37abc8;fill-opacity:1;fill-rule:evenodd;stroke:#000000;stroke-width:1.92093622999999990;stroke-linecap:butt;stroke-linejoin:miter;stroke-miterlimit:4;stroke-dasharray:none;stroke-opacity:1" />
      <path
         sodipodi:nodetypes="csc"
         id="path19432"
         d="M 187.07452,279.60573 C 181.57833,282.89998 176.97212,293.36321 172.13929,316.78829 C 163.77343,357.33832 196.78983,381.85743 196.97402,395.38992"
         style="fill:none;fill-opacity:0.75;fill-rule:evenodd;stroke:#000000;stroke-width:0.48023406;stroke-linecap:butt;stroke-linejoin:miter;stroke-miterlimit:4;stroke-dasharray:none;stroke-opacity:1" />
      <path
         sodipodi:nodetypes="csc"
         id="path19434"
         d="M 186.38225,285.96571 C 180.88606,290.56456 181.34051,294.37925 176.15413,313.23819 C 165.1509,353.2486 199.74401,379.61194 200.98886,393.14443"
         style="fill:none;fill-opacity:0.75;fill-rule:evenodd;stroke:#000000;stroke-width:0.48023406;stroke-linecap:butt;stroke-linejoin:miter;stroke-miterlimit:4;stroke-dasharray:none;stroke-opacity:1;display:inline" />
      <path
         sodipodi:nodetypes="cssc"
         id="path20309"
         d="M 186.36741,283.1934 C 184.05156,285.31617 180.68796,288.37601 179.60968,292.95938 C 176.22459,307.3482 170.7477,319.31459 172.39349,335.42121 C 173.57404,346.97466 179.62125,362.20135 195.20625,384.62688"
         style="fill:none;fill-opacity:0.75;fill-rule:evenodd;stroke:#000000;stroke-width:0.48023406;stroke-linecap:butt;stroke-linejoin:miter;marker:none;marker-start:none;marker-mid:none;marker-end:none;stroke-miterlimit:4;stroke-dasharray:none;stroke-dashoffset:0;stroke-opacity:1;visibility:visible;display:inline;overflow:visible" />
      <path
         sodipodi:nodetypes="css"
         id="path20311"
         d="M 381.88244,230.35667 C 371.21513,210.51273 363.35918,215.80805 333.44562,240.14126 C 291.24004,274.43487 231.04304,230.10384 171.87173,238.18434"
         style="fill:none;fill-opacity:0.75;fill-rule:evenodd;stroke:#000000;stroke-width:0.48023406;stroke-linecap:butt;stroke-linejoin:miter;marker:none;marker-start:none;marker-mid:none;marker-end:none;stroke-miterlimit:4;stroke-dasharray:none;stroke-dashoffset:0;stroke-opacity:1;visibility:visible;display:inline;overflow:visible" />
      <path
         sodipodi:nodetypes="css"
         id="path20313"
         d="M 381.4431,230.26794 C 370.06868,215.31629 365.04116,219.9593 331.94562,245.92327 C 289.10089,279.53563 229.54304,234.25508 170.37173,242.33558"
         style="fill:none;fill-opacity:0.75;fill-rule:evenodd;stroke:#000000;stroke-width:0.48023406;stroke-linecap:butt;stroke-linejoin:miter;marker:none;marker-start:none;marker-mid:none;marker-end:none;stroke-miterlimit:4;stroke-dasharray:none;stroke-dashoffset:0;stroke-opacity:1;visibility:visible;display:inline;overflow:visible" />
      <path
         sodipodi:nodetypes="cc"
         id="path20315"
         d="M 172.22528,239.8151 C 200.80495,236.81754 226.22136,244.393 253.89611,250.57814"
         style="fill:none;fill-opacity:0.75;fill-rule:evenodd;stroke:#000000;stroke-width:0.48023406;stroke-linecap:butt;stroke-linejoin:miter;marker:none;marker-start:none;marker-mid:none;marker-end:none;stroke-miterlimit:4;stroke-dasharray:none;stroke-dashoffset:0;stroke-opacity:1;visibility:visible;display:inline;overflow:visible" />
      <path
         sodipodi:nodetypes="csc"
         id="path20317"
         d="M 298.09029,256.77504 C 308.58201,255.28233 319.71997,253.27732 330.96512,244.69974 C 353.79534,227.28527 366.69422,211.31185 379.40757,226.44284"
         style="fill:none;fill-opacity:0.75;fill-rule:evenodd;stroke:#000000;stroke-width:0.48023406;stroke-linecap:butt;stroke-linejoin:miter;marker:none;marker-start:none;marker-mid:none;marker-end:none;stroke-miterlimit:4;stroke-dasharray:none;stroke-dashoffset:0;stroke-opacity:1;visibility:visible;display:inline;overflow:visible" />
      <path
         id="path20319"
         d="M 260.02885,252.01157 L 259.90385,252.48032 C 270.59244,255.03065 282.49176,255.90657 294.46635,256.63657 L 294.46635,256.16782 C 282.49586,255.43806 270.66344,254.54901 260.02885,252.01157 z"
         style="fill:#000000;fill-opacity:1;fill-rule:evenodd;stroke:none;stroke-width:0.48023406;stroke-linecap:butt;stroke-linejoin:miter;marker:none;marker-start:none;marker-mid:none;marker-end:none;stroke-miterlimit:4;stroke-dasharray:none;stroke-dashoffset:0;stroke-opacity:1;visibility:visible;display:inline;overflow:visible" />
      <path
         sodipodi:nodetypes="cccc"
         id="path20327"
         d="M 184.4351,252.90714 C 186.2534,255.40558 188.11884,257.90402 193.6226,260.40245 L 194.96635,259.0187 C 190.76773,257.61638 187.75157,255.12324 184.4351,252.90714 z"
         style="fill:#000000;fill-opacity:1;fill-rule:evenodd;stroke:none;stroke-width:2;stroke-linecap:butt;stroke-linejoin:miter;marker:none;marker-start:none;marker-mid:none;marker-end:none;stroke-miterlimit:4;stroke-dasharray:none;stroke-dashoffset:0;stroke-opacity:1;visibility:visible;display:inline;overflow:visible" />
      <path
         sodipodi:nodetypes="cccc"
         id="path29112"
         d="M 171.8726,377.90576 L 171.15385,379.60662 C 175.08059,381.04951 179.02203,379.80625 182.6851,377.55982 C 182.6851,377.55982 175.01693,379.06116 171.8726,377.90576 z"
         style="fill:#000000;fill-opacity:1;fill-rule:evenodd;stroke:none;stroke-width:2;stroke-linecap:butt;stroke-linejoin:miter;marker:none;marker-start:none;marker-mid:none;marker-end:none;stroke-miterlimit:4;stroke-dasharray:none;stroke-dashoffset:0;stroke-opacity:1;visibility:visible;display:inline;overflow:visible" />
      <path
         sodipodi:nodetypes="cscscc"
         id="path29114"
         d="M 203.90385,370.12217 C 203.03639,371.43769 202.26319,372.00498 201.4976,372.34194 L 199.27885,374.7635 C 200.16997,374.60102 201.22133,374.50691 202.34135,374.01397 C 203.46137,373.52102 204.57319,372.61757 205.59135,371.0735 L 203.90385,370.12217 z"
         style="fill:#000000;fill-opacity:1;fill-rule:evenodd;stroke:none;stroke-width:2;stroke-linecap:butt;stroke-linejoin:miter;marker:none;marker-start:none;marker-mid:none;marker-end:none;stroke-miterlimit:4;stroke-dasharray:none;stroke-dashoffset:0;stroke-opacity:1;visibility:visible;display:inline;overflow:visible" />
      <path
         sodipodi:nodetypes="cscscc"
         id="path29116"
         d="M 197.5601,360.55125 C 194.87421,360.84162 193.11448,362.28807 192.21635,364.06827 C 191.31822,365.84847 191.13206,367.91074 191.02885,369.89155 C 191.02885,369.89155 193.34425,366.2036 194.02885,364.84663 C 194.71345,363.48966 195.7161,362.62262 197.8101,362.39624 L 197.5601,360.55125 z"
         style="fill:#000000;fill-opacity:1;fill-rule:evenodd;stroke:none;stroke-width:2;stroke-linecap:butt;stroke-linejoin:miter;marker:none;marker-start:none;marker-mid:none;marker-end:none;stroke-miterlimit:4;stroke-dasharray:none;stroke-dashoffset:0;stroke-opacity:1;visibility:visible;display:inline;overflow:visible" />
      <path
         sodipodi:nodetypes="cccc"
         id="path29118"
         d="M 166.15385,368.73842 L 165.5601,370.49694 C 170.95281,372.03427 176.02693,370.6312 180.34135,366.69163 C 180.34135,366.69163 170.90828,370.09381 166.15385,368.73842 z"
         style="fill:#000000;fill-opacity:1;fill-rule:evenodd;stroke:none;stroke-width:2;stroke-linecap:butt;stroke-linejoin:miter;marker:none;marker-start:none;marker-mid:none;marker-end:none;stroke-miterlimit:4;stroke-dasharray:none;stroke-dashoffset:0;stroke-opacity:1;visibility:visible;display:inline;overflow:visible" />
      <path
         sodipodi:nodetypes="cscscc"
         id="path29120"
         d="M 192.09135,350.3461 C 191.95759,352.67362 191.20453,354.49783 189.84135,355.96758 L 184.15385,361.04132 C 187.26579,360.26019 189.69654,358.98544 191.3726,357.17836 C 193.04866,355.37128 193.93947,353.07537 194.09135,350.43258 L 192.09135,350.3461 z"
         style="fill:#000000;fill-opacity:1;fill-rule:evenodd;stroke:none;stroke-width:2;stroke-linecap:butt;stroke-linejoin:miter;marker:none;marker-start:none;marker-mid:none;marker-end:none;stroke-miterlimit:4;stroke-dasharray:none;stroke-dashoffset:0;stroke-opacity:1;visibility:visible;display:inline;overflow:visible" />
      <path
         sodipodi:nodetypes="cccc"
         id="path29122"
         d="M 161.4351,357.63961 L 161.09135,359.45578 C 165.45769,360.16032 169.96539,360.08851 174.4351,358.07203 C 174.4351,358.07203 165.55405,358.30423 161.4351,357.63961 z"
         style="fill:#000000;fill-opacity:1;fill-rule:evenodd;stroke:none;stroke-width:2;stroke-linecap:butt;stroke-linejoin:miter;marker:none;marker-start:none;marker-mid:none;marker-end:none;stroke-miterlimit:4;stroke-dasharray:none;stroke-dashoffset:0;stroke-opacity:1;visibility:visible;display:inline;overflow:visible" />
      <path
         sodipodi:nodetypes="cccc"
         id="path29124"
         d="M 189.34135,338.26713 C 186.3409,344.60661 182.95916,346.06839 179.15385,346.54079 C 179.15385,346.54079 187.99512,345.7566 191.1851,339.01666 L 189.34135,338.26713 z"
         style="fill:#000000;fill-opacity:1;fill-rule:evenodd;stroke:none;stroke-width:2;stroke-linecap:butt;stroke-linejoin:miter;marker:none;marker-start:none;marker-mid:none;marker-end:none;stroke-miterlimit:4;stroke-dasharray:none;stroke-dashoffset:0;stroke-opacity:1;visibility:visible;display:inline;overflow:visible" />
      <path
         sodipodi:nodetypes="cccc"
         id="path29126"
         d="M 158.8726,345.96423 L 157.9976,347.60743 C 163.07166,349.90636 167.69286,349.98371 171.84135,348.64524 C 171.84135,348.64524 163.53868,348.07831 158.8726,345.96423 z"
         style="fill:#000000;fill-opacity:1;fill-rule:evenodd;stroke:none;stroke-width:2;stroke-linecap:butt;stroke-linejoin:miter;marker:none;marker-start:none;marker-mid:none;marker-end:none;stroke-miterlimit:4;stroke-dasharray:none;stroke-dashoffset:0;stroke-opacity:1;visibility:visible;display:inline;overflow:visible" />
      <path
         sodipodi:nodetypes="cccc"
         id="path29128"
         d="M 157.21635,332.64565 L 156.1226,334.20237 C 160.81301,336.93515 165.74458,337.4323 170.4976,335.58612 C 170.4976,335.58612 161.48262,335.13132 157.21635,332.64565 z"
         style="fill:#000000;fill-opacity:1;fill-rule:evenodd;stroke:none;stroke-width:2;stroke-linecap:butt;stroke-linejoin:miter;marker:none;marker-start:none;marker-mid:none;marker-end:none;stroke-miterlimit:4;stroke-dasharray:none;stroke-dashoffset:0;stroke-opacity:1;visibility:visible;display:inline;overflow:visible" />
      <path
         sodipodi:nodetypes="cccc"
         id="path29130"
         d="M 157.46635,319.5577 L 156.5601,321.2009 C 160.92,323.26599 165.22602,323.28576 169.3101,323.5648 C 169.3101,323.5648 161.35602,321.40006 157.46635,319.5577 z"
         style="fill:#000000;fill-opacity:1;fill-rule:evenodd;stroke:none;stroke-width:2;stroke-linecap:butt;stroke-linejoin:miter;marker:none;marker-start:none;marker-mid:none;marker-end:none;stroke-miterlimit:4;stroke-dasharray:none;stroke-dashoffset:0;stroke-opacity:1;visibility:visible;display:inline;overflow:visible" />
      <path
         sodipodi:nodetypes="cccc"
         id="path29132"
         d="M 156.96635,305.97966 L 155.65385,307.36341 C 160.39596,311.13144 166.02783,311.69764 171.4976,311.83177 C 171.4976,311.83177 161.19396,309.33888 156.96635,305.97966 z"
         style="fill:#000000;fill-opacity:1;fill-rule:evenodd;stroke:none;stroke-width:2;stroke-linecap:butt;stroke-linejoin:miter;marker:none;marker-start:none;marker-mid:none;marker-end:none;stroke-miterlimit:4;stroke-dasharray:none;stroke-dashoffset:0;stroke-opacity:1;visibility:visible;display:inline;overflow:visible" />
      <path
         sodipodi:nodetypes="ccccc"
         id="path29134"
         d="M 162.27885,295.16913 C 160.75199,295.11185 159.20349,295.14499 157.6226,295.31327 L 157.84135,297.15827 L 175.21635,298.71498 C 171.1941,296.52242 166.85944,295.34096 162.27885,295.16913 z"
         style="fill:#000000;fill-opacity:1;fill-rule:evenodd;stroke:none;stroke-width:2;stroke-linecap:butt;stroke-linejoin:miter;marker:none;marker-start:none;marker-mid:none;marker-end:none;stroke-miterlimit:4;stroke-dasharray:none;stroke-dashoffset:0;stroke-opacity:1;visibility:visible;display:inline;overflow:visible" />
      <path
         sodipodi:nodetypes="cccc"
         id="path29136"
         d="M 159.27885,279.34251 L 158.9976,281.15868 C 166.31187,282.11954 172.92242,284.16053 178.27885,288.45218 C 178.27885,288.45218 166.81697,280.33278 159.27885,279.34251 z"
         style="fill:#000000;fill-opacity:1;fill-rule:evenodd;stroke:none;stroke-width:2;stroke-linecap:butt;stroke-linejoin:miter;marker:none;marker-start:none;marker-mid:none;marker-end:none;stroke-miterlimit:4;stroke-dasharray:none;stroke-dashoffset:0;stroke-opacity:1;visibility:visible;display:inline;overflow:visible" />
      <path
         sodipodi:nodetypes="cccc"
         id="path29138"
         d="M 159.8101,267.58064 L 159.8726,269.42564 C 170.10732,269.1447 175.43763,273.39515 183.46635,278.53532 C 183.46635,278.53532 170.50006,267.28721 159.8101,267.58064 z"
         style="fill:#000000;fill-opacity:1;fill-rule:evenodd;stroke:none;stroke-width:2;stroke-linecap:butt;stroke-linejoin:miter;marker:none;marker-start:none;marker-mid:none;marker-end:none;stroke-miterlimit:4;stroke-dasharray:none;stroke-dashoffset:0;stroke-opacity:1;visibility:visible;display:inline;overflow:visible" />
      <path
         sodipodi:nodetypes="ccccc"
         id="path29140"
         d="M 172.6851,254.78097 C 168.85495,254.49019 164.86734,255.09445 161.15385,256.94308 L 162.09135,258.55745 C 170.9993,254.12296 182.00623,257.83559 187.02885,263.25643 C 187.02885,263.25643 179.06868,255.2656 172.6851,254.78097 z"
         style="fill:#000000;fill-opacity:1;fill-rule:evenodd;stroke:none;stroke-width:2;stroke-linecap:butt;stroke-linejoin:miter;marker:none;marker-start:none;marker-mid:none;marker-end:none;stroke-miterlimit:4;stroke-dasharray:none;stroke-dashoffset:0;stroke-opacity:1;visibility:visible;display:inline;overflow:visible" />
      <path
         sodipodi:nodetypes="cccc"
         id="path29142"
         d="M 193.52885,229.52756 L 192.09135,235.7256 L 195.46635,229.90232 L 193.52885,229.52756 z"
         style="fill:#000000;fill-opacity:1;fill-rule:evenodd;stroke:none;stroke-width:2;stroke-linecap:butt;stroke-linejoin:miter;marker:none;marker-start:none;marker-mid:none;marker-end:none;stroke-miterlimit:4;stroke-dasharray:none;stroke-dashoffset:0;stroke-opacity:1;visibility:visible;display:inline;overflow:visible" />
      <path
         sodipodi:nodetypes="cccc"
         id="path29144"
         d="M 188.52885,325.69808 C 184.8527,326.77839 180.88991,327.54025 176.09135,332.12675 C 176.09135,332.12675 185.33913,328.57762 189.15385,327.45659 L 188.52885,325.69808 z"
         style="fill:#000000;fill-opacity:1;fill-rule:evenodd;stroke:none;stroke-width:2;stroke-linecap:butt;stroke-linejoin:miter;marker:none;marker-start:none;marker-mid:none;marker-end:none;stroke-miterlimit:4;stroke-dasharray:none;stroke-dashoffset:0;stroke-opacity:1;visibility:visible;display:inline;overflow:visible" />
      <path
         sodipodi:nodetypes="csccsc"
         id="path29146"
         d="M 178.21635,312.84075 C 180.09431,314.70773 182.19636,315.27538 184.1226,315.17583 C 186.04884,315.07627 187.81913,314.45632 189.4351,314.10919 L 188.96635,312.29302 C 187.16463,312.68005 185.52029,313.25374 184.02885,313.33083 L 178.21635,312.84075 z"
         style="fill:#000000;fill-opacity:1;fill-rule:evenodd;stroke:none;stroke-width:2;stroke-linecap:butt;stroke-linejoin:miter;marker:none;marker-start:none;marker-mid:none;marker-end:none;stroke-miterlimit:4;stroke-dasharray:none;stroke-dashoffset:0;stroke-opacity:1;visibility:visible;display:inline;overflow:visible" />
      <path
         sodipodi:nodetypes="cccc"
         id="path29148"
         d="M 181.2476,299.57983 C 181.2476,299.57983 186.42964,301.35786 188.9351,303.15451 L 190.15385,301.71311 C 187.00246,299.45326 183.83021,300.00793 181.2476,299.57983 z"
         style="fill:#000000;fill-opacity:1;fill-rule:evenodd;stroke:none;stroke-width:2;stroke-linecap:butt;stroke-linejoin:miter;marker:none;marker-start:none;marker-mid:none;marker-end:none;stroke-miterlimit:4;stroke-dasharray:none;stroke-dashoffset:0;stroke-opacity:1;visibility:visible;display:inline;overflow:visible" />
      <path
         sodipodi:nodetypes="ccscsc"
         id="path29275"
         d="M 363.02885,388.23032 L 361.1226,388.29282 C 361.16986,390.44955 360.48517,392.79341 360.4351,395.32407 C 360.38503,397.85473 361.11142,400.58332 363.90385,403.10532 C 363.90385,403.10532 362.3294,397.53871 362.3726,395.35532 C 362.4158,393.17193 363.08489,390.78763 363.02885,388.23032 z"
         style="fill:#000000;fill-opacity:1;fill-rule:evenodd;stroke:none;stroke-width:1.92093623;stroke-linecap:butt;stroke-linejoin:miter;marker:none;marker-start:none;marker-mid:none;marker-end:none;stroke-miterlimit:4;stroke-dasharray:none;stroke-dashoffset:0;stroke-opacity:1;visibility:visible;display:inline;overflow:visible" />
      <path
         sodipodi:nodetypes="cc"
         id="path29279"
         d="M 414.71635,236.73032 C 402.14366,272.59247 430.21635,311.06365 402.71635,387.23032"
         style="fill:none;fill-opacity:0.75;fill-rule:evenodd;stroke:#000000;stroke-width:0.48023406;stroke-linecap:butt;stroke-linejoin:miter;marker:none;marker-start:none;marker-mid:none;marker-end:none;stroke-miterlimit:4;stroke-dasharray:none;stroke-dashoffset:0;stroke-opacity:1;visibility:visible;display:inline;overflow:visible" />
      <path
         sodipodi:nodetypes="cc"
         id="path29281"
         d="M 418.21635,241.73032 C 405.64366,277.59247 435.21635,309.56365 407.71635,385.73032"
         style="fill:none;fill-opacity:0.75;fill-rule:evenodd;stroke:#000000;stroke-width:0.48023406;stroke-linecap:butt;stroke-linejoin:miter;marker:none;marker-start:none;marker-mid:none;marker-end:none;stroke-miterlimit:4;stroke-dasharray:none;stroke-dashoffset:0;stroke-opacity:1;visibility:visible;display:inline;overflow:visible" />
      <path
         sodipodi:nodetypes="cc"
         id="path29283"
         d="M 416.21635,239.73032 C 403.64366,275.59247 432.71635,310.56365 405.21635,386.73032"
         style="fill:none;fill-opacity:0.75;fill-rule:evenodd;stroke:#000000;stroke-width:0.48023406;stroke-linecap:butt;stroke-linejoin:miter;marker:none;marker-start:none;marker-mid:none;marker-end:none;stroke-miterlimit:4;stroke-dasharray:none;stroke-dashoffset:0;stroke-opacity:1;visibility:visible;display:inline;overflow:visible" />
      <path
         sodipodi:nodetypes="csssssssccssssssssc"
         id="path29285"
         d="M 199.0601,252.76157 C 201.56986,255.68554 202.25798,257.51288 202.3726,258.41782 C 202.42991,258.87029 202.35194,259.09553 202.3101,259.19907 C 202.30173,259.21978 202.31621,259.21878 202.3101,259.23032 C 202.31571,259.22429 202.3299,259.24125 202.34135,259.23032 C 202.34707,259.22485 202.32924,259.20974 202.34135,259.19907 C 202.34741,259.19373 202.35582,259.18142 202.3726,259.16782 C 202.38099,259.16102 202.43518,259.13652 202.4351,259.13657 C 202.43502,259.13662 202.59135,259.04282 202.59135,259.04282 L 202.9976,260.88657 C 202.9976,260.88657 203.52877,260.69912 203.52885,260.69907 C 203.52893,260.69902 203.58269,260.67484 203.59135,260.66782 C 203.60867,260.65379 203.61555,260.64278 203.6226,260.63657 C 203.63669,260.62415 203.64443,260.61431 203.65385,260.60532 C 203.67269,260.58733 203.69733,260.56326 203.71635,260.54282 C 203.7544,260.50193 203.79684,260.44698 203.84135,260.38657 C 203.93036,260.26575 204.00735,260.12569 204.09135,259.91782 C 204.25936,259.50208 204.37267,258.90859 204.27885,258.16782 L 199.0601,252.76157 z"
         style="fill:#000000;fill-opacity:1;fill-rule:evenodd;stroke:none;stroke-width:1.92093623;stroke-linecap:butt;stroke-linejoin:miter;marker:none;marker-start:none;marker-mid:none;marker-end:none;stroke-miterlimit:4;stroke-dasharray:none;stroke-dashoffset:0;stroke-opacity:1;visibility:visible;display:inline;overflow:visible" />
      <path
         sodipodi:nodetypes="cccc"
         id="path29287"
         d="M 215.1226,254.48032 C 215.1226,254.48032 216.00775,260.83914 215.8101,263.38657 L 217.71635,263.51157 C 217.9576,260.40215 216.83747,257.39991 215.1226,254.48032 z"
         style="fill:#000000;fill-opacity:1;fill-rule:evenodd;stroke:none;stroke-width:1.92093623;stroke-linecap:butt;stroke-linejoin:miter;marker:none;marker-start:none;marker-mid:none;marker-end:none;stroke-miterlimit:4;stroke-dasharray:none;stroke-dashoffset:0;stroke-opacity:1;visibility:visible;display:inline;overflow:visible" />
      <path
         sodipodi:nodetypes="cccc"
         id="path29289"
         d="M 229.40385,266.07407 L 231.02885,265.07407 C 228.15093,260.52325 227.2154,256.08739 227.96635,251.60532 C 227.96635,251.60532 226.31949,261.19679 229.40385,266.07407 z"
         style="fill:#000000;fill-opacity:1;fill-rule:evenodd;stroke:none;stroke-width:1.92093623;stroke-linecap:butt;stroke-linejoin:miter;marker:none;marker-start:none;marker-mid:none;marker-end:none;stroke-miterlimit:4;stroke-dasharray:none;stroke-dashoffset:0;stroke-opacity:1;visibility:visible;display:inline;overflow:visible" />
      <path
         sodipodi:nodetypes="csccsc"
         id="path29291"
         d="M 242.1226,254.79282 C 240.70346,256.93314 240.41698,259.16983 240.6226,261.26157 C 240.82822,263.35331 241.48245,265.32131 241.9976,267.23032 L 243.8726,266.73032 C 243.33827,264.75024 242.70553,262.87142 242.52885,261.07407 L 242.1226,254.79282 z"
         style="fill:#000000;fill-opacity:1;fill-rule:evenodd;stroke:none;stroke-width:1.92093623;stroke-linecap:butt;stroke-linejoin:miter;marker:none;marker-start:none;marker-mid:none;marker-end:none;stroke-miterlimit:4;stroke-dasharray:none;stroke-dashoffset:0;stroke-opacity:1;visibility:visible;display:inline;overflow:visible" />
      <path
         sodipodi:nodetypes="cccc"
         id="path29293"
         d="M 258.3726,256.88657 C 258.3726,256.88657 256.92814,263.99062 255.8101,267.38657 L 257.6226,267.98032 C 258.83254,264.30521 259.12841,260.59012 258.3726,256.88657 z"
         style="fill:#000000;fill-opacity:1;fill-rule:evenodd;stroke:none;stroke-width:1.92093623;stroke-linecap:butt;stroke-linejoin:miter;marker:none;marker-start:none;marker-mid:none;marker-end:none;stroke-miterlimit:4;stroke-dasharray:none;stroke-dashoffset:0;stroke-opacity:1;visibility:visible;display:inline;overflow:visible" />
      <path
         sodipodi:nodetypes="cccc"
         id="path29295"
         d="M 276.77885,260.19907 C 276.77885,260.19907 275.64971,266.05687 274.2476,268.66782 L 275.96635,269.57407 C 277.72862,266.29246 276.97273,263.04317 276.77885,260.19907 z"
         style="fill:#000000;fill-opacity:1;fill-rule:evenodd;stroke:none;stroke-width:1.92093623;stroke-linecap:butt;stroke-linejoin:miter;marker:none;marker-start:none;marker-mid:none;marker-end:none;stroke-miterlimit:4;stroke-dasharray:none;stroke-dashoffset:0;stroke-opacity:1;visibility:visible;display:inline;overflow:visible" />
      <path
         sodipodi:nodetypes="cccc"
         id="path29297"
         d="M 294.02885,259.91782 C 294.02885,259.91782 293.69667,266.03149 292.3726,267.82407 L 293.90385,268.98032 C 295.79293,266.4228 295.28462,263.14962 294.02885,259.91782 z"
         style="fill:#000000;fill-opacity:1;fill-rule:evenodd;stroke:none;stroke-width:1.92093623;stroke-linecap:butt;stroke-linejoin:miter;marker:none;marker-start:none;marker-mid:none;marker-end:none;stroke-miterlimit:4;stroke-dasharray:none;stroke-dashoffset:0;stroke-opacity:1;visibility:visible;display:inline;overflow:visible" />
      <path
         sodipodi:nodetypes="cccc"
         id="path29299"
         d="M 308.09135,257.91782 L 309.15385,265.35532 L 311.0601,265.07407 L 308.09135,257.91782 z"
         style="fill:#000000;fill-opacity:1;fill-rule:evenodd;stroke:none;stroke-width:1.92093623;stroke-linecap:butt;stroke-linejoin:miter;marker:none;marker-start:none;marker-mid:none;marker-end:none;stroke-miterlimit:4;stroke-dasharray:none;stroke-dashoffset:0;stroke-opacity:1;visibility:visible;display:inline;overflow:visible" />
      <path
         sodipodi:nodetypes="cccc"
         id="path29301"
         d="M 326.9351,252.23032 C 326.9351,252.23032 326.07317,258.04137 325.77885,260.07407 L 327.6851,260.35532 C 328.03922,257.90967 327.5591,254.51831 326.9351,252.23032 z"
         style="fill:#000000;fill-opacity:1;fill-rule:evenodd;stroke:none;stroke-width:1.92093623;stroke-linecap:butt;stroke-linejoin:miter;marker:none;marker-start:none;marker-mid:none;marker-end:none;stroke-miterlimit:4;stroke-dasharray:none;stroke-dashoffset:0;stroke-opacity:1;visibility:visible;display:inline;overflow:visible" />
      <path
         sodipodi:nodetypes="cccc"
         id="path29303"
         d="M 338.2476,243.41782 C 338.2476,243.41782 338.27835,250.90969 339.2476,253.54282 L 341.0601,252.85532 C 340.14373,250.36586 339.19075,246.89784 338.2476,243.41782 z"
         style="fill:#000000;fill-opacity:1;fill-rule:evenodd;stroke:none;stroke-width:1.92093623;stroke-linecap:butt;stroke-linejoin:miter;marker:none;marker-start:none;marker-mid:none;marker-end:none;stroke-miterlimit:4;stroke-dasharray:none;stroke-dashoffset:0;stroke-opacity:1;visibility:visible;display:inline;overflow:visible" />
      <path
         sodipodi:nodetypes="cccc"
         id="path29305"
         d="M 353.27885,231.76157 C 353.27885,231.76157 354.48345,238.97338 354.77885,241.98032 L 356.6851,241.79282 C 356.40596,238.9514 356.42958,235.77854 353.27885,231.76157 z"
         style="fill:#000000;fill-opacity:1;fill-rule:evenodd;stroke:none;stroke-width:1.92093623;stroke-linecap:butt;stroke-linejoin:miter;marker:none;marker-start:none;marker-mid:none;marker-end:none;stroke-miterlimit:4;stroke-dasharray:none;stroke-dashoffset:0;stroke-opacity:1;visibility:visible;display:inline;overflow:visible" />
      <path
         sodipodi:nodetypes="cccc"
         id="path29307"
         d="M 364.65385,224.44907 L 363.59135,232.57407 L 365.4976,232.82407 L 364.65385,224.44907 z"
         style="fill:#000000;fill-opacity:1;fill-rule:evenodd;stroke:none;stroke-width:1.92093623;stroke-linecap:butt;stroke-linejoin:miter;marker:none;marker-start:none;marker-mid:none;marker-end:none;stroke-miterlimit:4;stroke-dasharray:none;stroke-dashoffset:0;stroke-opacity:1;visibility:visible;display:inline;overflow:visible" />
      <path
         sodipodi:nodetypes="cccc"
         id="path29309"
         d="M 208.2476,230.32407 C 206.63984,232.34373 204.89166,234.4952 205.21635,237.04282 C 205.21635,237.04282 208.16566,233.4988 209.7476,231.51157 L 208.2476,230.32407 z"
         style="fill:#000000;fill-opacity:1;fill-rule:evenodd;stroke:none;stroke-width:1.92093623;stroke-linecap:butt;stroke-linejoin:miter;marker:none;marker-start:none;marker-mid:none;marker-end:none;stroke-miterlimit:4;stroke-dasharray:none;stroke-dashoffset:0;stroke-opacity:1;visibility:visible;display:inline;overflow:visible" />
      <path
         sodipodi:nodetypes="ccscsc"
         id="path29311"
         d="M 223.0601,232.66782 L 221.77885,234.10532 C 222.725,234.94052 223.11819,235.67088 223.2476,236.38657 L 224.7476,239.38657 C 225.11472,238.35561 225.33414,237.21274 225.1226,236.04282 C 224.91106,234.8729 224.25004,233.71823 223.0601,232.66782 z"
         style="fill:#000000;fill-opacity:1;fill-rule:evenodd;stroke:none;stroke-width:1.92093623;stroke-linecap:butt;stroke-linejoin:miter;marker:none;marker-start:none;marker-mid:none;marker-end:none;stroke-miterlimit:4;stroke-dasharray:none;stroke-dashoffset:0;stroke-opacity:1;visibility:visible;display:inline;overflow:visible" />
      <path
         sodipodi:nodetypes="cccc"
         id="path29313"
         d="M 235.6226,235.44907 C 235.49593,236.94318 235,238.42091 233.9976,239.94907 C 233.9976,239.94907 237.37576,237.41099 237.52885,235.60532 L 235.6226,235.44907 z"
         style="fill:#000000;fill-opacity:1;fill-rule:evenodd;stroke:none;stroke-width:1.92093623;stroke-linecap:butt;stroke-linejoin:miter;marker:none;marker-start:none;marker-mid:none;marker-end:none;stroke-miterlimit:4;stroke-dasharray:none;stroke-dashoffset:0;stroke-opacity:1;visibility:visible;display:inline;overflow:visible" />
      <path
         sodipodi:nodetypes="cccc"
         id="path29315"
         d="M 249.77885,237.85532 C 249.28516,240.83764 250.68058,243.70938 253.1851,246.41782 C 253.1851,246.41782 251.28915,240.37093 251.65385,238.16782 L 249.77885,237.85532 z"
         style="fill:#000000;fill-opacity:1;fill-rule:evenodd;stroke:none;stroke-width:1.92093623;stroke-linecap:butt;stroke-linejoin:miter;marker:none;marker-start:none;marker-mid:none;marker-end:none;stroke-miterlimit:4;stroke-dasharray:none;stroke-dashoffset:0;stroke-opacity:1;visibility:visible;display:inline;overflow:visible" />
      <path
         sodipodi:nodetypes="ccscsc"
         id="path29317"
         d="M 269.8101,239.10532 L 268.40385,240.41782 C 269.83797,241.94454 271.19444,243.45593 271.9351,244.82407 L 273.8101,249.41782 C 274.8525,247.57726 274.54075,245.61381 273.6226,243.91782 C 272.70445,242.22183 271.25426,240.64273 269.8101,239.10532 z"
         style="fill:#000000;fill-opacity:1;fill-rule:evenodd;stroke:none;stroke-width:1.92093623;stroke-linecap:butt;stroke-linejoin:miter;marker:none;marker-start:none;marker-mid:none;marker-end:none;stroke-miterlimit:4;stroke-dasharray:none;stroke-dashoffset:0;stroke-opacity:1;visibility:visible;display:inline;overflow:visible" />
      <path
         sodipodi:nodetypes="cccc"
         id="path29319"
         d="M 290.52885,238.76157 L 288.6851,239.35532 C 290.30001,244.09171 290.71461,247.60411 291.4976,251.60532 C 291.4976,251.60532 292.20633,243.68148 290.52885,238.76157 z"
         style="fill:#000000;fill-opacity:1;fill-rule:evenodd;stroke:none;stroke-width:1.92093623;stroke-linecap:butt;stroke-linejoin:miter;marker:none;marker-start:none;marker-mid:none;marker-end:none;stroke-miterlimit:4;stroke-dasharray:none;stroke-dashoffset:0;stroke-opacity:1;visibility:visible;display:inline;overflow:visible" />
      <path
         sodipodi:nodetypes="cccc"
         id="path29321"
         d="M 308.1851,235.54282 L 306.3726,236.19907 L 307.8726,249.85532 C 308.6758,245.57989 310.16206,241.09652 308.1851,235.54282 z"
         style="fill:#000000;fill-opacity:1;fill-rule:evenodd;stroke:none;stroke-width:1.92093623;stroke-linecap:butt;stroke-linejoin:miter;marker:none;marker-start:none;marker-mid:none;marker-end:none;stroke-miterlimit:4;stroke-dasharray:none;stroke-dashoffset:0;stroke-opacity:1;visibility:visible;display:inline;overflow:visible" />
      <path
         sodipodi:nodetypes="cccc"
         id="path29323"
         d="M 321.90385,228.29282 C 321.09743,233.06989 320.58259,238.22181 322.6226,244.98032 C 322.6226,244.98032 322.9878,233.29135 323.77885,228.60532 L 321.90385,228.29282 z"
         style="fill:#000000;fill-opacity:1;fill-rule:evenodd;stroke:none;stroke-width:1.92093623;stroke-linecap:butt;stroke-linejoin:miter;marker:none;marker-start:none;marker-mid:none;marker-end:none;stroke-miterlimit:4;stroke-dasharray:none;stroke-dashoffset:0;stroke-opacity:1;visibility:visible;display:inline;overflow:visible" />
      <path
         sodipodi:nodetypes="ccscsc"
         id="path29325"
         d="M 337.09135,217.32407 L 335.46635,218.35532 C 337.00103,220.7885 338.65349,222.96586 340.65385,224.44907 C 342.65421,225.93228 345.05067,226.6994 347.7476,226.23032 C 347.7476,226.23032 343.49507,224.13593 341.8101,222.88657 C 340.12513,221.63721 338.56368,219.65839 337.09135,217.32407 z"
         style="fill:#000000;fill-opacity:1;fill-rule:evenodd;stroke:none;stroke-width:1.92093623;stroke-linecap:butt;stroke-linejoin:miter;marker:none;marker-start:none;marker-mid:none;marker-end:none;stroke-miterlimit:4;stroke-dasharray:none;stroke-dashoffset:0;stroke-opacity:1;visibility:visible;display:inline;overflow:visible" />
      <path
         sodipodi:nodetypes="cccc"
         id="path29327"
         d="M 350.15385,202.85532 L 349.27885,204.54282 C 355.72687,207.03581 358.36703,212.06736 362.21635,216.29282 C 359.5761,211.784 357.58471,206.68029 350.15385,202.85532 z"
         style="fill:#000000;fill-opacity:1;fill-rule:evenodd;stroke:none;stroke-width:1.92093623;stroke-linecap:butt;stroke-linejoin:miter;marker:none;marker-start:none;marker-mid:none;marker-end:none;stroke-miterlimit:4;stroke-dasharray:none;stroke-dashoffset:0;stroke-opacity:1;visibility:visible;display:inline;overflow:visible" />
      <path
         sodipodi:nodetypes="cccc"
         id="path29329"
         d="M 364.4351,193.29282 L 362.5601,193.60532 C 363.65263,199.64049 365.05449,205.94843 370.9351,212.13657 C 370.82031,212.13657 364.78282,199.27847 364.4351,193.29282 z"
         style="fill:#000000;fill-opacity:1;fill-rule:evenodd;stroke:none;stroke-width:1.92093623;stroke-linecap:butt;stroke-linejoin:miter;marker:none;marker-start:none;marker-mid:none;marker-end:none;stroke-miterlimit:4;stroke-dasharray:none;stroke-dashoffset:0;stroke-opacity:1;visibility:visible;display:inline;overflow:visible" />
      <path
         sodipodi:nodetypes="cccc"
         id="path29331"
         d="M 384.96635,193.69907 L 383.0601,193.91782 C 383.8746,200.45636 382.81022,206.99226 379.9351,213.57407 C 379.9351,213.57407 385.82544,200.5955 384.96635,193.69907 z"
         style="fill:#000000;fill-opacity:1;fill-rule:evenodd;stroke:none;stroke-width:1.92093623;stroke-linecap:butt;stroke-linejoin:miter;marker:none;marker-start:none;marker-mid:none;marker-end:none;stroke-miterlimit:4;stroke-dasharray:none;stroke-dashoffset:0;stroke-opacity:1;visibility:visible;display:inline;overflow:visible" />
      <path
         sodipodi:nodetypes="cccc"
         id="path29333"
         d="M 399.8101,201.51157 L 397.90385,201.63657 C 398.25892,209.52199 394.03061,217.4074 387.8101,225.29282 C 396.86005,217.50232 400.35306,209.48829 399.8101,201.51157 z"
         style="fill:#000000;fill-opacity:1;fill-rule:evenodd;stroke:none;stroke-width:1.92093623;stroke-linecap:butt;stroke-linejoin:miter;marker:none;marker-start:none;marker-mid:none;marker-end:none;stroke-miterlimit:4;stroke-dasharray:none;stroke-dashoffset:0;stroke-opacity:1;visibility:visible;display:inline;overflow:visible" />
      <path
         sodipodi:nodetypes="cccc"
         id="path29335"
         d="M 407.7476,213.60532 L 399.2476,221.76157 L 409.0601,215.01157 L 407.7476,213.60532 z"
         style="fill:#000000;fill-opacity:1;fill-rule:evenodd;stroke:none;stroke-width:1.92093623;stroke-linecap:butt;stroke-linejoin:miter;marker:none;marker-start:none;marker-mid:none;marker-end:none;stroke-miterlimit:4;stroke-dasharray:none;stroke-dashoffset:0;stroke-opacity:1;visibility:visible;display:inline;overflow:visible" />
      <path
         sodipodi:nodetypes="cccccccc"
         id="path29337"
         d="M 412.09135,221.41782 L 407.52885,231.38657 C 409.56885,229.14748 412.46271,226.05371 413.90385,222.04282 L 412.09135,221.41782 z M 382.9976,231.82407 L 382.1851,233.57407 C 386.78412,235.71289 391.04732,236.83281 394.9351,236.85532 C 394.9351,236.85532 387.41976,233.88063 382.9976,231.82407 z"
         style="fill:#000000;fill-opacity:1;fill-rule:evenodd;stroke:none;stroke-width:1.92093623;stroke-linecap:butt;stroke-linejoin:miter;marker:none;marker-start:none;marker-mid:none;marker-end:none;stroke-miterlimit:4;stroke-dasharray:none;stroke-dashoffset:0;stroke-opacity:1;visibility:visible;display:inline;overflow:visible" />
      <path
         sodipodi:nodetypes="csccsc"
         id="path29339"
         d="M 406.84135,262.29282 C 404.22322,263.89699 401.61966,265.20136 399.02885,265.63657 C 396.43804,266.07178 393.8475,265.70544 390.90385,263.73032 L 389.84135,265.32407 C 393.13676,267.53521 396.36518,268.04802 399.3726,267.54282 L 406.84135,262.29282 z"
         style="fill:#000000;fill-opacity:1;fill-rule:evenodd;stroke:none;stroke-width:1.92093623;stroke-linecap:butt;stroke-linejoin:miter;marker:none;marker-start:none;marker-mid:none;marker-end:none;stroke-miterlimit:4;stroke-dasharray:none;stroke-dashoffset:0;stroke-opacity:1;visibility:visible;display:inline;overflow:visible" />
      <path
         sodipodi:nodetypes="cscscc"
         id="path29341"
         d="M 422.9976,262.69907 C 421.71886,263.75304 421.04899,263.78361 420.27885,263.63657 C 419.50871,263.48953 418.59426,262.95931 417.3101,262.85532 C 417.3101,262.85532 418.74778,265.28488 419.9351,265.51157 C 421.12242,265.73826 422.62433,265.51126 424.21635,264.19907 L 422.9976,262.69907 z"
         style="fill:#000000;fill-opacity:1;fill-rule:evenodd;stroke:none;stroke-width:1.92093623;stroke-linecap:butt;stroke-linejoin:miter;marker:none;marker-start:none;marker-mid:none;marker-end:none;stroke-miterlimit:4;stroke-dasharray:none;stroke-dashoffset:0;stroke-opacity:1;visibility:visible;display:inline;overflow:visible" />
      <path
         sodipodi:nodetypes="ccscsc"
         id="path29343"
         d="M 394.5601,283.26157 L 393.2476,284.66782 C 395.98818,287.17014 398.86098,288.15539 401.65385,288.23032 C 404.44672,288.30525 407.15757,287.52402 409.77885,286.63657 C 409.77885,286.63657 404.10894,286.38826 401.71635,286.32407 C 399.32376,286.25988 397.00498,285.4939 394.5601,283.26157 z"
         style="fill:#000000;fill-opacity:1;fill-rule:evenodd;stroke:none;stroke-width:1.92093623;stroke-linecap:butt;stroke-linejoin:miter;marker:none;marker-start:none;marker-mid:none;marker-end:none;stroke-miterlimit:4;stroke-dasharray:none;stroke-dashoffset:0;stroke-opacity:1;visibility:visible;display:inline;overflow:visible" />
      <path
         sodipodi:nodetypes="csccsc"
         id="path29345"
         d="M 417.71635,283.29282 C 419.10058,284.37279 420.519,285.38677 422.0601,285.91782 C 423.6012,286.44887 425.33766,286.42811 426.9351,285.48032 L 425.9351,283.85532 C 424.82197,284.51576 423.85458,284.50831 422.6851,284.10532 L 417.71635,283.29282 z"
         style="fill:#000000;fill-opacity:1;fill-rule:evenodd;stroke:none;stroke-width:1.92093623;stroke-linecap:butt;stroke-linejoin:miter;marker:none;marker-start:none;marker-mid:none;marker-end:none;stroke-miterlimit:4;stroke-dasharray:none;stroke-dashoffset:0;stroke-opacity:1;visibility:visible;display:inline;overflow:visible" />
      <path
         sodipodi:nodetypes="ccscsc"
         id="path29347"
         d="M 396.0601,297.82407 L 394.59135,299.07407 C 396.45202,301.28852 399.21932,302.14255 402.15385,302.51157 C 405.08838,302.88059 408.27518,302.78415 411.1851,302.94907 C 411.1851,302.94907 405.12326,300.94729 402.40385,300.60532 C 399.68444,300.26335 397.46856,299.50033 396.0601,297.82407 z"
         style="fill:#000000;fill-opacity:1;fill-rule:evenodd;stroke:none;stroke-width:1.92093623;stroke-linecap:butt;stroke-linejoin:miter;marker:none;marker-start:none;marker-mid:none;marker-end:none;stroke-miterlimit:4;stroke-dasharray:none;stroke-dashoffset:0;stroke-opacity:1;visibility:visible;display:inline;overflow:visible" />
      <path
         sodipodi:nodetypes="cccscs"
         id="path29349"
         d="M 404.52885,313.16782 C 402.09344,313.59443 399.86236,313.34208 398.02885,311.85532 L 396.84135,313.35532 C 399.18575,315.25636 402.06181,315.56096 404.84135,315.07407 C 407.62089,314.58718 410.36801,313.3197 412.7476,312.01157 C 412.7476,312.01157 406.96426,312.74121 404.52885,313.16782 z"
         style="fill:#000000;fill-opacity:1;fill-rule:evenodd;stroke:none;stroke-width:1.92093623;stroke-linecap:butt;stroke-linejoin:miter;marker:none;marker-start:none;marker-mid:none;marker-end:none;stroke-miterlimit:4;stroke-dasharray:none;stroke-dashoffset:0;stroke-opacity:1;visibility:visible;display:inline;overflow:visible" />
      <path
         sodipodi:nodetypes="cscscc"
         id="path29351"
         d="M 427.21635,301.60532 C 425.91516,302.72606 425.31839,302.7206 424.5601,302.54282 C 423.80181,302.36504 422.84073,301.72868 421.46635,301.73032 C 421.46635,301.73032 422.94976,304.1116 424.1226,304.38657 C 425.29544,304.66154 426.84698,304.46886 428.46635,303.07407 L 427.21635,301.60532 z"
         style="fill:#000000;fill-opacity:1;fill-rule:evenodd;stroke:none;stroke-width:1.92093623;stroke-linecap:butt;stroke-linejoin:miter;marker:none;marker-start:none;marker-mid:none;marker-end:none;stroke-miterlimit:4;stroke-dasharray:none;stroke-dashoffset:0;stroke-opacity:1;visibility:visible;display:inline;overflow:visible" />
      <path
         sodipodi:nodetypes="csccsc"
         id="path29353"
         d="M 420.46635,313.66782 C 421.82152,314.89633 423.21919,315.8476 424.71635,316.32407 C 426.21351,316.80054 427.85944,316.73971 429.3726,315.91782 L 428.4351,314.23032 C 427.35554,314.81669 426.40567,314.86024 425.3101,314.51157 L 420.46635,313.66782 z"
         style="fill:#000000;fill-opacity:1;fill-rule:evenodd;stroke:none;stroke-width:1.92093623;stroke-linecap:butt;stroke-linejoin:miter;marker:none;marker-start:none;marker-mid:none;marker-end:none;stroke-miterlimit:4;stroke-dasharray:none;stroke-dashoffset:0;stroke-opacity:1;visibility:visible;display:inline;overflow:visible" />
      <path
         sodipodi:nodetypes="ccccc"
         id="path29355"
         d="M 404.5601,326.35532 C 401.82729,326.18586 398.99244,326.63131 396.21635,328.38657 L 397.2476,330.01157 C 404.59322,326.31116 407.71199,328.24655 412.52885,327.91782 C 409.95614,327.28013 407.29291,326.52478 404.5601,326.35532 z"
         style="fill:#000000;fill-opacity:1;fill-rule:evenodd;stroke:none;stroke-width:1.92093623;stroke-linecap:butt;stroke-linejoin:miter;marker:none;marker-start:none;marker-mid:none;marker-end:none;stroke-miterlimit:4;stroke-dasharray:none;stroke-dashoffset:0;stroke-opacity:1;visibility:visible;display:inline;overflow:visible" />
      <path
         sodipodi:nodetypes="ccccc"
         id="path29357"
         d="M 424.65385,328.60532 C 423.29987,328.63825 421.96019,328.81062 420.65385,328.98032 C 420.65385,328.98032 425.94199,330.3086 428.34135,330.85532 L 428.77885,328.98032 C 427.3858,328.6629 426.00783,328.57239 424.65385,328.60532 z"
         style="fill:#000000;fill-opacity:1;fill-rule:evenodd;stroke:none;stroke-width:1.92093623;stroke-linecap:butt;stroke-linejoin:miter;marker:none;marker-start:none;marker-mid:none;marker-end:none;stroke-miterlimit:4;stroke-dasharray:none;stroke-dashoffset:0;stroke-opacity:1;visibility:visible;display:inline;overflow:visible" />
      <path
         sodipodi:nodetypes="cccc"
         id="path29359"
         d="M 395.3101,350.16782 L 395.3101,352.10532 C 399.43839,352.10406 403.29891,352.82668 411.27885,349.16782 C 411.39159,349.28056 401.22831,351.72515 395.3101,350.16782 z"
         style="fill:#000000;fill-opacity:1;fill-rule:evenodd;stroke:none;stroke-width:1.92093623;stroke-linecap:butt;stroke-linejoin:miter;marker:none;marker-start:none;marker-mid:none;marker-end:none;stroke-miterlimit:4;stroke-dasharray:none;stroke-dashoffset:0;stroke-opacity:1;visibility:visible;display:inline;overflow:visible" />
      <path
         sodipodi:nodetypes="csccsc"
         id="path29361"
         d="M 419.5601,345.94907 C 420.56538,346.58026 421.6236,347.68882 422.96635,348.48032 C 424.3091,349.27182 426.14727,349.58848 427.9976,348.41782 L 426.96635,346.79282 C 425.63182,347.63714 424.92911,347.41001 423.9351,346.82407 L 419.5601,345.94907 z"
         style="fill:#000000;fill-opacity:1;fill-rule:evenodd;stroke:none;stroke-width:1.92093623;stroke-linecap:butt;stroke-linejoin:miter;marker:none;marker-start:none;marker-mid:none;marker-end:none;stroke-miterlimit:4;stroke-dasharray:none;stroke-dashoffset:0;stroke-opacity:1;visibility:visible;display:inline;overflow:visible" />
      <path
         sodipodi:nodetypes="ccccc"
         id="path29363"
         d="M 420.4351,359.41782 C 418.79351,359.71791 417.38476,360.50501 416.0601,361.26157 C 416.0601,361.26157 423.26492,361.20836 424.8726,362.19907 L 425.8726,360.57407 C 423.92778,359.3756 422.07669,359.11773 420.4351,359.41782 z"
         style="fill:#000000;fill-opacity:1;fill-rule:evenodd;stroke:none;stroke-width:1.92093623;stroke-linecap:butt;stroke-linejoin:miter;marker:none;marker-start:none;marker-mid:none;marker-end:none;stroke-miterlimit:4;stroke-dasharray:none;stroke-dashoffset:0;stroke-opacity:1;visibility:visible;display:inline;overflow:visible" />
      <path
         sodipodi:nodetypes="cccc"
         id="path29365"
         d="M 414.52885,370.79282 L 416.0601,373.88657 L 416.9976,372.23032 L 414.52885,370.79282 z"
         style="fill:#000000;fill-opacity:1;fill-rule:evenodd;stroke:none;stroke-width:1.92093623;stroke-linecap:butt;stroke-linejoin:miter;marker:none;marker-start:none;marker-mid:none;marker-end:none;stroke-miterlimit:4;stroke-dasharray:none;stroke-dashoffset:0;stroke-opacity:1;visibility:visible;display:inline;overflow:visible" />
      <path
         sodipodi:nodetypes="ccscc"
         id="path29367"
         d="M 388.34135,364.76157 L 386.71635,365.79282 C 388.69523,368.90542 391.60553,370.56078 394.71635,371.57407 C 397.82717,372.58736 401.17421,373.00347 404.3101,373.63657 C 404.11521,374.41613 389.34907,370.17872 388.34135,364.76157 z"
         style="fill:#000000;fill-opacity:1;fill-rule:evenodd;stroke:none;stroke-width:1.92093623;stroke-linecap:butt;stroke-linejoin:miter;marker:none;marker-start:none;marker-mid:none;marker-end:none;stroke-miterlimit:4;stroke-dasharray:none;stroke-dashoffset:0;stroke-opacity:1;visibility:visible;display:inline;overflow:visible" />
      <path
         sodipodi:nodetypes="ccscc"
         id="path29369"
         d="M 375.9976,377.51157 L 374.34135,378.48032 C 376.51729,382.18531 379.97622,384.34413 383.90385,385.73032 C 387.83148,387.11651 392.24541,387.79816 396.5601,388.51157 C 396.27255,389.08667 380.09095,384.46294 375.9976,377.51157 z"
         style="fill:#000000;fill-opacity:1;fill-rule:evenodd;stroke:none;stroke-width:1.92093623;stroke-linecap:butt;stroke-linejoin:miter;marker:none;marker-start:none;marker-mid:none;marker-end:none;stroke-miterlimit:4;stroke-dasharray:none;stroke-dashoffset:0;stroke-opacity:1;visibility:visible;display:inline;overflow:visible" />
      <path
         sodipodi:nodetypes="cssccc"
         id="path29371"
         d="M 378.1226,397.85532 C 378.80759,398.38379 379.15803,398.91317 379.4976,399.54282 C 379.83717,400.17247 380.13205,400.91947 380.71635,401.69907 C 381.88494,403.25827 384.05825,404.62566 389.15385,405.48032 L 389.46635,403.57407 C 385.6851,403.6489 381.90385,400.47726 378.1226,397.85532 z"
         style="fill:#000000;fill-opacity:1;fill-rule:evenodd;stroke:none;stroke-width:1.92093623;stroke-linecap:butt;stroke-linejoin:miter;marker:none;marker-start:none;marker-mid:none;marker-end:none;stroke-miterlimit:4;stroke-dasharray:none;stroke-dashoffset:0;stroke-opacity:1;visibility:visible;display:inline;overflow:visible" />
      <path
         sodipodi:nodetypes="csccsc"
         id="path29373"
         d="M 354.09135,412.19907 C 354.60939,414.09142 354.75717,416.15244 355.65385,418.32407 C 356.55053,420.4957 358.2159,422.70796 361.5601,424.79282 L 362.59135,423.13657 C 359.50829,421.21451 358.19291,419.40938 357.4351,417.57407 L 354.09135,412.19907 z"
         style="fill:#000000;fill-opacity:1;fill-rule:evenodd;stroke:none;stroke-width:1.92093623;stroke-linecap:butt;stroke-linejoin:miter;marker:none;marker-start:none;marker-mid:none;marker-end:none;stroke-miterlimit:4;stroke-dasharray:none;stroke-dashoffset:0;stroke-opacity:1;visibility:visible;display:inline;overflow:visible" />
      <path
         sodipodi:nodetypes="cccss"
         id="path29375"
         d="M 369.90385,413.85532 C 371.4906,415.43851 373.63907,416.72396 376.21635,417.79282 L 376.9351,416.01157 C 374.50743,415.00476 372.57813,413.83912 371.2476,412.51157 C 369.91707,411.18402 368.3171,412.27213 369.90385,413.85532 z"
         style="fill:#000000;fill-opacity:1;fill-rule:evenodd;stroke:none;stroke-width:1.92093623;stroke-linecap:butt;stroke-linejoin:miter;marker:none;marker-start:none;marker-mid:none;marker-end:none;stroke-miterlimit:4;stroke-dasharray:none;stroke-dashoffset:0;stroke-opacity:1;visibility:visible;display:inline;overflow:visible" />
      <path
         sodipodi:nodetypes="cccc"
         id="path29377"
         d="M 349.9351,390.16782 L 348.0601,390.57407 C 349.4315,397.09553 346.39346,401.78195 343.2476,406.85532 C 343.2476,406.85532 351.46442,397.44024 349.9351,390.16782 z"
         style="fill:#000000;fill-opacity:1;fill-rule:evenodd;stroke:none;stroke-width:1.92093623;stroke-linecap:butt;stroke-linejoin:miter;marker:none;marker-start:none;marker-mid:none;marker-end:none;stroke-miterlimit:4;stroke-dasharray:none;stroke-dashoffset:0;stroke-opacity:1;visibility:visible;display:inline;overflow:visible" />
      <path
         sodipodi:nodetypes="cccc"
         id="path29379"
         d="M 333.65385,386.91782 L 331.8101,387.48032 C 334.70448,396.4987 332.81864,404.1994 328.3726,411.44907 C 328.3726,411.44907 336.7223,396.47855 333.65385,386.91782 z"
         style="fill:#000000;fill-opacity:1;fill-rule:evenodd;stroke:none;stroke-width:1.92093623;stroke-linecap:butt;stroke-linejoin:miter;marker:none;marker-start:none;marker-mid:none;marker-end:none;stroke-miterlimit:4;stroke-dasharray:none;stroke-dashoffset:0;stroke-opacity:1;visibility:visible;display:inline;overflow:visible" />
      <path
         sodipodi:nodetypes="cccc"
         id="path29381"
         d="M 342.8101,416.16782 C 341.6231,419.11914 341.89781,422.43261 344.77885,425.35532 L 346.15385,424.01157 L 342.8101,416.16782 z"
         style="fill:#000000;fill-opacity:1;fill-rule:evenodd;stroke:none;stroke-width:1.92093623;stroke-linecap:butt;stroke-linejoin:miter;marker:none;marker-start:none;marker-mid:none;marker-end:none;stroke-miterlimit:4;stroke-dasharray:none;stroke-dashoffset:0;stroke-opacity:1;visibility:visible;display:inline;overflow:visible" />
      <path
         sodipodi:nodetypes="cccc"
         id="path29383"
         d="M 316.0601,388.76157 C 312.60227,393.59013 312.21526,401.04011 313.7476,410.32407 C 313.7476,410.32407 314.68728,393.98549 317.6226,389.88657 L 316.0601,388.76157 z"
         style="fill:#000000;fill-opacity:1;fill-rule:evenodd;stroke:none;stroke-width:1.92093623;stroke-linecap:butt;stroke-linejoin:miter;marker:none;marker-start:none;marker-mid:none;marker-end:none;stroke-miterlimit:4;stroke-dasharray:none;stroke-dashoffset:0;stroke-opacity:1;visibility:visible;display:inline;overflow:visible" />
      <path
         sodipodi:nodetypes="cccc"
         id="path29385"
         d="M 310.2476,420.85532 L 311.3726,419.29282 C 306.58231,415.88442 305.48077,412.82152 306.09135,409.63657 C 306.09135,409.63657 305.09988,417.1926 310.2476,420.85532 z"
         style="fill:#000000;fill-opacity:1;fill-rule:evenodd;stroke:none;stroke-width:1.92093623;stroke-linecap:butt;stroke-linejoin:miter;marker:none;marker-start:none;marker-mid:none;marker-end:none;stroke-miterlimit:4;stroke-dasharray:none;stroke-dashoffset:0;stroke-opacity:1;visibility:visible;display:inline;overflow:visible" />
      <path
         sodipodi:nodetypes="cc"
         id="path5893"
         d="M 298.09029,417.60186 C 301.43874,411.4736 299.62703,405.34534 298.44384,399.21708"
         style="fill:none;fill-opacity:0.75;fill-rule:evenodd;stroke:#000000;stroke-width:1px;stroke-linecap:butt;stroke-linejoin:miter;stroke-opacity:1" />
      <path
         sodipodi:nodetypes="cc"
         id="path5895"
         d="M 362.29056,399.89906 C 363.4563,403.21167 367.8403,410.48799 370.36163,412.79856"
         style="fill:none;fill-opacity:0.75;fill-rule:evenodd;stroke:#000000;stroke-width:1px;stroke-linecap:butt;stroke-linejoin:miter;stroke-opacity:1" />
    </g>
  </g>
  <g
     inkscape:groupmode="layer"
     id="layer5"
     inkscape:label="sc2"
     style="display:inline"
     transform="translate(-63.981016,-22.540045)" />
</svg>
