<?xml version="1.0" encoding="UTF-8" standalone="no"?>
<!-- Created with Inkscape (http://www.inkscape.org/) -->

<svg
   xmlns:dc="http://purl.org/dc/elements/1.1/"
   xmlns:cc="http://creativecommons.org/ns#"
   xmlns:rdf="http://www.w3.org/1999/02/22-rdf-syntax-ns#"
   xmlns:svg="http://www.w3.org/2000/svg"
   xmlns="http://www.w3.org/2000/svg"
   xmlns:xlink="http://www.w3.org/1999/xlink"
   xmlns:sodipodi="http://sodipodi.sourceforge.net/DTD/sodipodi-0.dtd"
   xmlns:inkscape="http://www.inkscape.org/namespaces/inkscape"
   width="151.01338mm"
   height="179.33333mm"
   viewBox="0 0 535.08679 635.43305"
   id="svg10472"
   version="1.1"
   inkscape:version="0.91 r13725"
   sodipodi:docname="surgeon.svg">
  <title
     id="title7781">Surgeon</title>
  <defs
     id="defs10474">
    <linearGradient
       x1="654.28998"
       y1="-254.53"
       gradientTransform="matrix(1.1013,-0.15809,0.69098,0.32964,-40.16,-222.83)"
       x2="653.26001"
       gradientUnits="userSpaceOnUse"
       y2="-204.24001"
       id="linearGradient7500">
      <stop
         offset="0"
         style="stop-color:white"
         id="stop14612" />
      <stop
         offset="1"
         style="stop-color:white;stop-opacity:0"
         id="stop14614" />
    </linearGradient>
    <linearGradient
       x1="379.73999"
       y1="-452.60999"
       gradientTransform="matrix(0.50432,0,0,0.50432,34.099,911.79)"
       x2="411.78"
       gradientUnits="userSpaceOnUse"
       y2="-436.19"
       id="linearGradient7502">
      <stop
         offset="0"
         style="stop-color:#f8f8f8"
         id="stop10162" />
      <stop
         offset="1"
         style="stop-color:#6b6b6b"
         id="stop10164" />
    </linearGradient>
    <linearGradient
       x1="310.45999"
       y1="-332.04999"
       gradientTransform="matrix(0.50432,0,0,0.50432,6.0662,842.39)"
       x2="377.42999"
       gradientUnits="userSpaceOnUse"
       y2="-264.31"
       id="linearGradient7504">
      <stop
         offset="0"
         style="stop-color:#e2e2e2;stop-opacity:.85795"
         id="stop8366" />
      <stop
         offset=".49123"
         style="stop-color:white;stop-opacity:.84659"
         id="stop9255" />
      <stop
         offset="1"
         style="stop-color:white;stop-opacity:.40341"
         id="stop8368" />
    </linearGradient>
    <linearGradient
       x1="310.45999"
       y1="-332.04999"
       gradientTransform="matrix(-0.50432,0,0,-0.50432,414.84,672.86)"
       x2="377.42999"
       gradientUnits="userSpaceOnUse"
       y2="-264.31"
       id="linearGradient7506">
      <stop
         offset="0"
         style="stop-color:black;stop-opacity:.57386"
         id="stop9267" />
      <stop
         offset=".49123"
         style="stop-color:#dfdfdf;stop-opacity:.45455"
         id="stop9269" />
      <stop
         offset="1"
         style="stop-color:white;stop-opacity:.40341"
         id="stop9271" />
    </linearGradient>
    <linearGradient
       x1="106.8"
       y1="732.45001"
       gradientTransform="matrix(1.0022,0,0,0.92383,139.49,18.687)"
       x2="106.65"
       gradientUnits="userSpaceOnUse"
       y2="714.22998"
       id="linearGradient7508">
      <stop
         offset="0"
         style="stop-color:black"
         id="stop7474" />
      <stop
         offset=".65919"
         style="stop-color:white"
         id="stop7480" />
      <stop
         offset=".84436"
         style="stop-color:white"
         id="stop7482" />
      <stop
         offset="1"
         style="stop-color:#c1c1c1"
         id="stop7476" />
    </linearGradient>
    <linearGradient
       x1="160.37"
       y1="640.96002"
       gradientTransform="matrix(0.75903,0,0,0.86443,192.34,124.69)"
       x2="127.79"
       gradientUnits="userSpaceOnUse"
       y2="633.84998"
       id="linearGradient7510">
      <stop
         offset="0"
         style="stop-color:black"
         id="stop2841" />
      <stop
         offset="1"
         style="stop-color:white"
         id="stop2843" />
    </linearGradient>
    <linearGradient
       x1="-270.07999"
       x2="-268.41"
       gradientTransform="matrix(100.55,113.72,113.72,-100.55,-25192,76932)"
       y1="460.09"
       gradientUnits="userSpaceOnUse"
       y2="460.09"
       id="XMLID_31_-0">
      <stop
         offset="0"
         style="stop-color:#FFD8BF"
         id="stop142-9" />
      <stop
         offset=".5393"
         style="stop-color:#BF7400"
         id="stop144-1" />
      <stop
         offset="1"
         style="stop-color:#000000"
         id="stop146-2" />
    </linearGradient>
    <linearGradient
       x1="-268.26999"
       x2="-266.57001"
       gradientTransform="matrix(25.13,103.51,103.51,-25.13,-40422,39142)"
       y1="455.76999"
       gradientUnits="userSpaceOnUse"
       y2="455.76999"
       id="XMLID_32_-6">
      <stop
         offset="0"
         style="stop-color:#FFD8BF"
         id="stop153-68" />
      <stop
         offset=".5393"
         style="stop-color:#BF7400"
         id="stop155-3" />
      <stop
         offset="1"
         style="stop-color:#000000"
         id="stop157-3" />
    </linearGradient>
    <linearGradient
       x1="-270.09"
       x2="-268.39999"
       gradientTransform="matrix(100.55,113.72,113.72,-100.55,-25192,76932)"
       y1="460.10001"
       gradientUnits="userSpaceOnUse"
       y2="460.10001"
       id="XMLID_33_-2">
      <stop
         offset="0"
         style="stop-color:#F3C192"
         id="stop172-3" />
      <stop
         offset=".5393"
         style="stop-color:#D49035"
         id="stop174-0" />
      <stop
         offset="1"
         style="stop-color:#765735"
         id="stop176-2" />
    </linearGradient>
    <linearGradient
       x1="-268.26001"
       x2="-266.57999"
       gradientTransform="matrix(25.13,103.51,103.51,-25.13,-40422,39142)"
       y1="455.76999"
       gradientUnits="userSpaceOnUse"
       y2="455.76999"
       id="XMLID_34_-8">
      <stop
         offset="0"
         style="stop-color:#F3C192"
         id="stop183-2" />
      <stop
         offset=".5393"
         style="stop-color:#D49035"
         id="stop185-6" />
      <stop
         offset="1"
         style="stop-color:#765735"
         id="stop187-1" />
    </linearGradient>
    <radialGradient
       r="1.6849999"
       gradientTransform="matrix(32.319,0,0,-32.319,9620.6,15112)"
       cx="-296.48999"
       cy="466.06"
       gradientUnits="userSpaceOnUse"
       id="XMLID_35_-7">
      <stop
         offset="0"
         style="stop-color:#FFFA5F"
         id="stop192-1" />
      <stop
         offset="1"
         style="stop-color:#9F3300"
         id="stop194-8" />
    </radialGradient>
    <linearGradient
       x1="-265.14999"
       x2="-263.48001"
       gradientTransform="matrix(0,-132.47,-132.47,0,62635,-34991)"
       y1="472.53"
       gradientUnits="userSpaceOnUse"
       y2="472.53"
       id="XMLID_21_-9">
      <stop
         offset="0"
         style="stop-color:#7FB5F7"
         id="stop16-9" />
      <stop
         offset="1"
         style="stop-color:#063DA7"
         id="stop18-4" />
    </linearGradient>
    <linearGradient
       x1="-265.16"
       x2="-263.47"
       gradientTransform="matrix(0,-132.47,-132.47,0,62635,-34991)"
       y1="472.54999"
       gradientUnits="userSpaceOnUse"
       y2="472.54999"
       id="XMLID_22_-9">
      <stop
         offset="0"
         style="stop-color:#7ED8FC"
         id="stop23-3" />
      <stop
         offset="1"
         style="stop-color:#0649AA"
         id="stop25-9" />
    </linearGradient>
    <linearGradient
       x1="-265.16"
       x2="-263.47"
       gradientTransform="matrix(0,-132.47,-132.47,0,62635,-34991)"
       y1="472.53"
       gradientUnits="userSpaceOnUse"
       y2="472.53"
       id="XMLID_23_-18">
      <stop
         offset="0"
         style="stop-color:#5471AF"
         id="stop30-2" />
      <stop
         offset="1"
         style="stop-color:#042676"
         id="stop32-7" />
    </linearGradient>
    <linearGradient
       x1="-265.14999"
       x2="-263.47"
       gradientTransform="matrix(0,-132.47,-132.47,0,62635,-34991)"
       y1="472.53"
       gradientUnits="userSpaceOnUse"
       y2="472.53"
       id="XMLID_24_-9">
      <stop
         offset="0"
         style="stop-color:#68A0F2"
         id="stop37-1" />
      <stop
         offset="1"
         style="stop-color:#0536A3"
         id="stop39-9" />
    </linearGradient>
    <radialGradient
       r="1.6703"
       gradientTransform="matrix(16.729,-0.005,-0.005,-16.729,5488.5,7876.9)"
       cx="-325.75"
       cy="466.57001"
       gradientUnits="userSpaceOnUse"
       id="XMLID_29_-4">
      <stop
         offset="0"
         style="stop-color:#B9DAF4"
         id="stop94-7" />
      <stop
         offset="1"
         style="stop-color:#7A97CB"
         id="stop96-0" />
    </radialGradient>
    <linearGradient
       x1="-257.44"
       x2="-255.81"
       gradientTransform="matrix(-0.9918,-12.804,-12.804,0.9918,6744.6,-3744.8)"
       y1="543.15002"
       gradientUnits="userSpaceOnUse"
       y2="543.15002"
       id="XMLID_30_-5">
      <stop
         offset="0"
         style="stop-color:#FFFFFF"
         id="stop111-9" />
      <stop
         offset=".4625"
         style="stop-color:#FDFEFF"
         id="stop113-8" />
      <stop
         offset=".6291"
         style="stop-color:#F6FAFF"
         id="stop115-8" />
      <stop
         offset=".7478"
         style="stop-color:#EBF4FF"
         id="stop117-19" />
      <stop
         offset=".8438"
         style="stop-color:#DAEAFF"
         id="stop119-64" />
      <stop
         offset=".9251"
         style="stop-color:#C4DEFF"
         id="stop121-2" />
      <stop
         offset=".9967"
         style="stop-color:#A9D0FF"
         id="stop123-0" />
      <stop
         offset="1"
         style="stop-color:#A8CFFF"
         id="stop125-2" />
    </linearGradient>
    <radialGradient
       r="1.6849999"
       gradientTransform="matrix(32.319,0,0,-32.319,9620.6,15112)"
       cx="-296.48999"
       cy="466.06"
       gradientUnits="userSpaceOnUse"
       id="XMLID_35_-7-3">
      <stop
         offset="0"
         style="stop-color:#FFFA5F"
         id="stop192-1-3" />
      <stop
         offset="1"
         style="stop-color:#9F3300"
         id="stop194-8-7" />
    </radialGradient>
    <linearGradient
       x1="-346.29001"
       x2="-344.60001"
       gradientTransform="matrix(11.5,4.0001,4.0001,-11.5,2213.4,6484.9)"
       y1="440.47"
       gradientUnits="userSpaceOnUse"
       y2="440.47"
       id="XMLID_36_-0">
      <stop
         offset="0"
         style="stop-color:#FFFFFF"
         id="stop201-7" />
      <stop
         offset="1"
         style="stop-color:#818181"
         id="stop203-7" />
    </linearGradient>
    <radialGradient
       r="1.6653"
       gradientTransform="matrix(29.207,0,0,-29.207,9361.9627,13701.141)"
       cx="-293.67999"
       cy="462.75"
       gradientUnits="userSpaceOnUse"
       id="XMLID_15_">
      <stop
         offset="0"
         style="stop-color:#FFFA5F"
         id="stop6" />
      <stop
         offset="1"
         style="stop-color:#9F3300"
         id="stop8" />
    </radialGradient>
    <linearGradient
       x1="23.132999"
       x2="26.216"
       y1="63.771999"
       gradientUnits="userSpaceOnUse"
       y2="63.771999"
       id="XMLID_18_"
       gradientTransform="translate(746.86266,136.14128)">
      <stop
         offset="0"
         style="stop-color:#9CD305"
         id="stop50" />
      <stop
         offset="1"
         style="stop-color:#084703"
         id="stop52" />
    </linearGradient>
    <radialGradient
       r="1.6545"
       gradientTransform="matrix(16.729,-0.005,-0.005,-16.729,6044.2627,7904.1413)"
       cx="-314.28"
       cy="460.07999"
       gradientUnits="userSpaceOnUse"
       id="XMLID_20_">
      <stop
         offset="0"
         style="stop-color:#B9DAF4"
         id="stop69" />
      <stop
         offset="1"
         style="stop-color:#7A97CB"
         id="stop71" />
    </radialGradient>
    <linearGradient
       x1="-269.39001"
       x2="-267.73999"
       gradientTransform="matrix(103.4,116.94,116.94,-103.4,-25383.137,79303.141)"
       y1="461.41"
       gradientUnits="userSpaceOnUse"
       y2="461.41"
       id="XMLID_22_-6">
      <stop
         offset="0"
         style="stop-color:#FFD8BF"
         id="stop117-1" />
      <stop
         offset=".5393"
         style="stop-color:#BF7400"
         id="stop119-6" />
      <stop
         offset="1"
         style="stop-color:#000000"
         id="stop121-3" />
    </linearGradient>
    <linearGradient
       x1="-269.41"
       x2="-267.70999"
       gradientTransform="matrix(103.4,116.94,116.94,-103.4,-25383.137,79303.141)"
       y1="461.29999"
       gradientUnits="userSpaceOnUse"
       y2="461.29999"
       id="XMLID_23_-1">
      <stop
         offset="0"
         style="stop-color:#F3C192"
         id="stop136" />
      <stop
         offset=".5393"
         style="stop-color:#D49035"
         id="stop138" />
      <stop
         offset="1"
         style="stop-color:#765735"
         id="stop140" />
    </linearGradient>
    <linearGradient
       x1="-269.44"
       x2="-267.67999"
       gradientTransform="matrix(103.4,116.94,116.94,-103.4,-25383.137,79303.141)"
       y1="461.60001"
       gradientUnits="userSpaceOnUse"
       y2="461.60001"
       id="XMLID_24_-3">
      <stop
         offset="0"
         style="stop-color:#F3C192"
         id="stop149" />
      <stop
         offset=".5393"
         style="stop-color:#D49035"
         id="stop151" />
      <stop
         offset="1"
         style="stop-color:#765735"
         id="stop153-6" />
    </linearGradient>
    <radialGradient
       r="1.6746"
       gradientTransform="matrix(40.852,0,0,-40.852,12463.863,19124.141)"
       cx="-285.76001"
       cy="463.54001"
       gradientUnits="userSpaceOnUse"
       id="XMLID_25_">
      <stop
         offset="0"
         style="stop-color:#FFFA5F"
         id="stop166" />
      <stop
         offset="1"
         style="stop-color:#9F3300"
         id="stop168" />
    </radialGradient>
    <linearGradient
       id="linearGradient3570"
       y2="460.09"
       gradientUnits="userSpaceOnUse"
       x2="-268.41"
       gradientTransform="matrix(201.1,227.43,227.43,-201.1,-50555,153920)"
       y1="460.09"
       x1="-270.07999"
       inkscape:collect="always">
      <stop
         id="stop142-1"
         style="stop-color:#FFD8BF"
         offset="0" />
      <stop
         id="stop144-2"
         style="stop-color:#BF7400"
         offset=".5393" />
      <stop
         id="stop146-7"
         style="stop-color:#000000"
         offset="1" />
    </linearGradient>
    <linearGradient
       id="linearGradient3558"
       y2="460.10001"
       gradientUnits="userSpaceOnUse"
       x2="-268.39999"
       gradientTransform="matrix(201.1,227.43,227.43,-201.1,-50555,153920)"
       y1="460.10001"
       x1="-270.09"
       inkscape:collect="always">
      <stop
         id="stop172-8"
         style="stop-color:#F3C192"
         offset="0" />
      <stop
         id="stop174-8"
         style="stop-color:#D49035"
         offset=".5393" />
      <stop
         id="stop176-8"
         style="stop-color:#765735"
         offset="1" />
    </linearGradient>
    <linearGradient
       inkscape:collect="always"
       xlink:href="#linearGradient3570"
       id="linearGradient12073"
       gradientUnits="userSpaceOnUse"
       gradientTransform="matrix(91.076455,103.00108,103.00108,-91.076455,-21828.968,70365.605)"
       x1="-270.07999"
       y1="460.09"
       x2="-268.41"
       y2="460.09" />
    <linearGradient
       inkscape:collect="always"
       xlink:href="#linearGradient3558"
       id="linearGradient12075"
       gradientUnits="userSpaceOnUse"
       gradientTransform="matrix(91.076455,103.00108,103.00108,-91.076455,-21828.968,70365.605)"
       x1="-270.09"
       y1="460.10001"
       x2="-268.39999"
       y2="460.10001" />
  </defs>
  <sodipodi:namedview
     id="base"
     pagecolor="#ffffff"
     bordercolor="#666666"
     borderopacity="1.0"
     inkscape:pageopacity="0.0"
     inkscape:pageshadow="2"
     inkscape:zoom="0.7"
     inkscape:cx="-136.255"
     inkscape:cy="379.12152"
     inkscape:document-units="px"
     inkscape:current-layer="layer1"
     showgrid="false"
     fit-margin-top="5"
     fit-margin-left="5"
     fit-margin-right="5"
     fit-margin-bottom="5"
     inkscape:window-width="1920"
     inkscape:window-height="1125"
     inkscape:window-x="0"
     inkscape:window-y="0"
     inkscape:window-maximized="1" />
  <metadata
     id="metadata10477">
    <rdf:RDF>
      <cc:Work
         rdf:about="">
        <dc:format>image/svg+xml</dc:format>
        <dc:type
           rdf:resource="http://purl.org/dc/dcmitype/StillImage" />
        <dc:title>Surgeon</dc:title>
        <dc:creator>
          <cc:Agent>
            <dc:title>Jan Helebrant</dc:title>
          </cc:Agent>
        </dc:creator>
        <dc:rights>
          <cc:Agent>
            <dc:title>Jan Helebrant</dc:title>
          </cc:Agent>
        </dc:rights>
        <dc:publisher>
          <cc:Agent>
            <dc:title>Jan Helebrant</dc:title>
          </cc:Agent>
        </dc:publisher>
        <cc:license
           rdf:resource="http://creativecommons.org/publicdomain/zero/1.0/" />
        <dc:subject>
          <rdf:Bag>
            <rdf:li>doctor</rdf:li>
            <rdf:li>hospital</rdf:li>
            <rdf:li>surgery</rdf:li>
            <rdf:li>scalpel</rdf:li>
            <rdf:li>operate</rdf:li>
            <rdf:li>surgeon</rdf:li>
          </rdf:Bag>
        </dc:subject>
      </cc:Work>
      <cc:License
         rdf:about="http://creativecommons.org/publicdomain/zero/1.0/">
        <cc:permits
           rdf:resource="http://creativecommons.org/ns#Reproduction" />
        <cc:permits
           rdf:resource="http://creativecommons.org/ns#Distribution" />
        <cc:permits
           rdf:resource="http://creativecommons.org/ns#DerivativeWorks" />
      </cc:License>
    </rdf:RDF>
  </metadata>
  <g
     inkscape:label="Vrstva 1"
     inkscape:groupmode="layer"
     id="layer1"
     transform="translate(-36.849978,-49.215499)">
    <g
       transform="matrix(4.8031416,0,0,4.8031416,-4603.4432,-3199.6561)"
       id="g12804">
      <path
         d="m 1062.9932,775.75338 c 0,20.80493 -19.9471,28.13633 -37.8236,27.67801 -19.853,-0.50996 -37.22047,-10.82501 -34.60095,-32.72775 2.25449,-18.86202 17.10215,-40.48939 38.20505,-39.23851 21.5196,1.27444 34.2195,24.84744 34.2195,44.28825"
         inkscape:connector-curvature="0"
         style="fill:#49c774;fill-opacity:1"
         id="path11977" />
      <path
         d="m 1027.097,732.20788 c -20.5323,0 -34.37535,21.6482 -35.90431,40.15606 -1.76628,21.41361 16.90461,30.27851 35.75221,30.27851 -17.0985,0 -35.47957,-7.66474 -34.61998,-27.41895 0.82335,-18.9218 15.63928,-33.84367 34.75848,-33.84367 18.2099,0 32.2097,13.3603 33.7106,31.39896 1.7219,20.72159 -15.2154,29.86366 -33.8211,29.86366 18.1999,0 35.9777,-8.46001 35.1725,-28.99682 -0.7409,-18.92543 -13.9156,-41.43775 -35.0484,-41.43775"
         inkscape:connector-curvature="0"
         style="fill:#49c774;fill-opacity:1"
         id="path11979" />
      <path
         d="m 1000.5893,744.89336 c -11.47991,14.37659 -17.78144,40.62979 0.1821,52.61692 14.6102,9.74623 41.3145,9.9455 54.7364,-2.19924 14.161,-12.81501 8.2073,-37.28201 -2.144,-50.55173 -14.2262,-18.2316 -38.397,-17.82852 -52.7754,0.13405 m -9.67832,31.50584 c 0,-20.22159 14.96632,-45.59257 37.78202,-44.26741 20.5504,1.19382 32.8872,23.04493 33.5901,41.65695 0.7454,19.75965 -15.4871,28.48234 -33.3401,28.95244 -17.0559,0.45108 -38.03202,-5.94194 -38.03202,-26.34198"
         inkscape:connector-curvature="0"
         style="fill:#282828;fill-opacity:1"
         id="path11981" />
      <path
         d="m 1027.0391,792.85003 c -12.1258,0 -26.7632,-1.8179 -35.60547,-11.0904 3.10683,15.45537 19.61747,20.60203 33.50587,20.97974 14.8892,0.40579 33.1887,-3.98726 36.7494,-20.77504 -8.5832,9.12486 -22.8067,10.8857 -34.6498,10.8857"
         inkscape:connector-curvature="0"
         style="fill:#006b25;fill-opacity:1"
         id="path11983" />
      <path
         d="m 1027.097,731.81386 c 19.276,0 31.9814,19.48611 34.0049,36.8409 2.3406,20.06943 -11.6665,30.97777 -30.5747,32.00312 -16.9725,0.91756 -38.7222,-5.2934 -38.7222,-25.79488 0,-18.77416 12.911,-41.56909 33.4796,-42.9957 -20.6021,1.394 -33.85007,23.70977 -34.60821,42.55549 -0.86411,21.44531 19.79681,29.08287 38.09181,28.61186 18.9816,-0.48821 35.2603,-10.34313 33.6842,-31.13266 -1.4112,-18.59572 -14.6655,-40.08813 -35.3554,-40.08813"
         inkscape:connector-curvature="0"
         style="fill:#282828;fill-opacity:1"
         id="path11985" />
      <ellipse
         style="opacity:1;fill:#fcd095;fill-opacity:1;stroke:#000000;stroke-width:1.23118639;stroke-linecap:butt;stroke-linejoin:round;stroke-miterlimit:4;stroke-dasharray:none;stroke-dashoffset:0;stroke-opacity:1"
         id="ellipse11987"
         cx="1027.5989"
         cy="740.4212"
         rx="15.509408"
         ry="7.7415504" />
      <path
         d="m 1055.2931,713.49893 c 0,15.23436 -13.3186,27.12367 -28.2241,27.12367 -14.9056,0 -28.22335,-11.8884 -28.22335,-27.12367 0,-15.23888 13.31045,-27.13815 28.22335,-27.13815 14.9146,0 28.2241,11.89745 28.2241,27.13815"
         inkscape:connector-curvature="0"
         style="fill:#fcd095"
         id="path11989" />
      <path
         d="m 1008.139,703.31341 c 6.4356,-7.5343 17.6609,-9.3975 26.8863,-6.85134 10.1149,2.79162 15.2516,10.96812 16.7806,20.92086 2.2481,-14.79958 -10.1086,-27.63271 -24.7379,-27.63271 -14.6456,0 -26.9787,12.84309 -24.736,27.64539 0.7636,-4.96006 2.5099,-10.20998 5.807,-14.0822"
         inkscape:connector-curvature="0"
         style="fill:#ffe2ae"
         id="path11991" />
      <path
         d="m 1054.2769,710.23359 c -1.5661,12.04963 -8.1793,21.26415 -20.7687,23.46249 -15.4074,2.69289 -31.5684,-7.16474 -33.64626,-23.45887 -2.2699,16.71984 12.70546,30.61093 29.00766,29.58921 15.0659,-0.94383 27.3665,-14.30775 25.4073,-29.59283"
         inkscape:connector-curvature="0"
         style="fill:#fabb78"
         id="path11993" />
      <path
         d="m 999.82842,710.30152 c -0.7364,1.5344 -0.35144,3.6494 -0.12047,5.23724 -0.13858,-1.74273 -0.0978,-3.50357 0.12047,-5.23724 m 54.02998,-2.51355 c 3.5343,15.3177 -7.9945,29.95877 -23.2207,31.87178 -8.3304,1.0489 -16.8964,-1.67479 -22.9679,-7.50441 -5.4727,-5.25807 -6.9872,-12.15107 -9.60856,-18.77416 0,15.81497 13.60846,27.99956 29.00406,27.99956 17.2443,0 31.9452,-15.51787 28.505,-33.06288 0.1449,0.33061 0.1214,0.61412 -0.073,0.85506 -0.6385,-0.34511 -1.1838,-0.80706 -1.6385,-1.38495 m 1.038,-1.57334 c 0.031,0.6739 0.031,0.6739 0,0 m -0.028,-0.4701 c 0.031,0.50542 0.031,0.50542 0,0 m -0.023,-0.27445 c 0.021,0.25633 0.01,0.0679 0,0"
         inkscape:connector-curvature="0"
         style="fill:url(#linearGradient12073)"
         id="path11995" />
      <path
         d="m 1047.1511,690.28916 c 4.8178,4.89847 7.4881,9.17105 7.7707,16.42818 -0.014,-0.42934 -5.4347,-5.09141 -6.2608,-5.7644 -2.0299,-1.65577 -4.3704,1.8804 -6.3523,2.89307 -5.0098,2.56246 -12.6248,4.51623 -18.1446,2.69017 -2.9501,-0.97462 -6.374,-2.95194 -9.5696,-1.98094 -1.8496,0.56339 -3.0325,2.1775 -3.7653,3.88399 -0.7446,1.73095 -0.8524,8.67468 -1.9764,9.40837 -0.4276,0.27626 -4.0543,-7.95096 -4.5371,-8.68374 -5.87947,-8.90203 -5.73635,6.65207 -5.03618,6.47544 -3.77983,0.94111 -0.82698,-15.04052 -0.26811,-16.29503 2.65489,-5.96096 7.49079,-10.56052 13.33769,-13.35758 10.5759,-5.0597 26.1834,-4.52257 34.802,4.30247"
         inkscape:connector-curvature="0"
         style="fill:#c48e53;fill-opacity:1"
         id="path11997" />
      <path
         d="m 997.1156,708.66658 c 0.0697,1.61773 1.02897,3.41118 1.02897,4.91297 -0.20471,-0.48007 0.91484,2.22551 1.14491,2.0516 0.37047,-2.46373 -1.68023,-4.56062 -2.17388,-6.96457 m 49.8498,-10.92102 c -0.6531,0 -2.8777,2.45558 -3.5543,2.87496 -1.9792,1.22461 -4.1802,2.07877 -6.4184,2.69923 -5.9311,1.64399 -10.6448,1.00089 -16.5133,0.0326 -3.4049,-0.55978 -6.3631,-2.60051 -8.8595,0.71828 -0.9619,1.27806 -3.4211,11.37029 -3.1539,11.37029 -1.2781,0 -3.6268,-7.39118 -4.3079,-8.4899 -0.8053,-1.30251 -3.2654,-3.25267 -4.81971,-2.01718 -1.60686,1.27534 -0.78984,4.71007 -0.53441,6.37218 -0.68024,-3.61679 1.53892,-5.09412 4.54612,-3.21734 1.1784,1.12861 4.3686,9.9138 5.4519,9.77974 0.3723,-0.0861 1.7844,-9.13935 2.5462,-10.48262 1.0561,-1.86863 2.7499,-3.06517 4.9302,-3.06517 3.7336,0.12771 6.9636,2.77894 10.6556,2.77894 4.6874,0 9.4917,-0.70923 13.8322,-2.538 1.4474,-0.6105 5.3677,-4.38218 6.4972,-4.38218 2.9583,-0.57517 4.9003,6.70641 7.5551,6.70641 0.4158,0 -0.2735,-3.96823 -0.3206,-4.23272 0.3741,0.69111 0.3795,1.29255 0.019,1.80523 -2.8107,-9.1e-4 -4.3967,-6.71276 -7.5515,-6.71276"
         inkscape:connector-curvature="0"
         style="fill:#2e3436"
         id="path11999" />
      <path
         d="m 1043.2825,698.15316 c 0,8.64751 -31.7242,7.86763 -31.7242,0.57699 5.8296,1.27443 12.2797,2.33329 18.2407,1.71736 1.548,-0.16213 13.4835,-4.43743 13.4835,-2.29435"
         inkscape:connector-curvature="0"
         style="fill:#d5a872;fill-opacity:1"
         id="path12001" />
      <path
         d="m 1054.2017,701.14949 c 0.5516,2.34417 0.9049,4.79974 1.3722,7.16837 -0.1503,-2.43112 -0.5471,-4.86859 -1.3722,-7.16837"
         inkscape:connector-curvature="0"
         style="fill:#f3d4b2"
         id="path12003" />
      <path
         d="m 1000.63,707.05882 c -0.4782,0 -0.7572,2.90122 -0.80158,3.24089 -0.0815,0.173 0.0317,-0.0806 0.0317,-0.0652 0.52718,-1.02172 1.60688,-1.019 2.56338,-0.67118 0.3487,-1.87316 0.3759,-2.50449 -1.7935,-2.50449 m 44.4486,-4.95101 c -3.3052,2.55612 -7.5533,3.83146 -11.623,4.48362 -5.9591,0.95923 -9.1846,-0.56611 -14.8322,-1.95105 -7.5026,-1.84055 -9.0659,6.42562 -9.4962,12.19274 0.135,0.55434 0.015,0.89944 -0.3605,1.03893 -1.9864,-2.37768 -2.6304,-5.71911 -4.2472,-8.38573 -0.3016,0.73277 3.7862,10.66468 4.9329,10.66468 2.0951,0 0.1531,-15.2407 9.3585,-13.3458 5.6557,1.16121 9.162,3.02894 15.171,2.09055 4.4139,-0.69112 9.1837,-2.10595 12.5759,-5.15844 -0.462,-0.57155 -0.9538,-1.11411 -1.4792,-1.6295 m 2.7364,-1.74273 c 1.9203,2.72279 3.7083,5.00174 6.0443,7.42108 -0.663,-2.87767 -3.3976,-5.97907 -6.0443,-7.42108"
         inkscape:connector-curvature="0"
         style="fill:#f2bd7e"
         id="path12005" />
      <path
         d="m 1002.8311,707.78797 c -0.7445,2.7554 -0.6295,1.1585 1.3107,2.66572 0.509,-1.36411 -0.1205,-2.00812 -1.3107,-2.66572 m 44.4314,-7.60585 c -0.596,0 -1.7418,1.58783 -2.1812,1.9275 0.5254,0.51539 1.0172,1.05796 1.4774,1.63041 1.4918,-1.34056 1.4764,-1.66573 3.1548,-0.18206 -0.3849,-0.78079 -1.3297,-3.37585 -2.451,-3.37585"
         inkscape:connector-curvature="0"
         style="fill:#f3c58a"
         id="path12007" />
      <path
         d="m 999.71067,715.53695 c 0.0978,0.78078 0.19474,1.56156 0.29343,2.34144 -0.0362,-0.78622 -0.13492,-1.567 -0.29343,-2.34144 m 0.15127,-5.30517 0,0"
         inkscape:connector-curvature="0"
         style="fill:#f1b26f"
         id="path12009" />
      <path
         d="m 1000.4534,707.06788 c -1.92749,0.17572 -1.73547,3.05339 -1.63493,4.34322 -0.003,-0.0181 0.68568,4.08056 0.47192,4.22095 -0.35779,-0.66394 -0.83966,-1.29527 -1.1422,-2.03982 0.11323,0.51539 1.00814,4.34051 1.80976,4.34051 -1.32788,0 0.22105,-9.81325 0.49545,-10.86486 m 54.3968,-1.59962 c 0.03,0.41666 0.053,0.83061 0.071,1.24727 0.017,0.10779 -0.019,0.16394 -0.1051,0.17028 -0.6141,-0.32789 -1.1404,-0.76901 -1.5761,-1.32606 0.2537,0.76901 0.7029,3.61045 2.26,3.61045 0.4637,9e-4 -0.5834,-3.48727 -0.6495,-3.70194"
         inkscape:connector-curvature="0"
         style="fill:url(#linearGradient12075)"
         id="path12011" />
      <path
         d="m 1008.8908,717.81499 c -0.036,0.0389 -0.077,0.0598 -0.125,0.0598 0.042,-0.0208 0.083,-0.0426 0.125,-0.0598 m -9.68737,-2.21102 c 0.0226,0.0127 0.0444,0.0245 0.067,0.0362 -0.0226,-0.0118 -0.0444,-0.0236 -0.067,-0.0362 m -0.60597,-1.0181 c 0.0598,0.11323 0.11957,0.22917 0.17844,0.34239 -0.0598,-0.11322 -0.11956,-0.22916 -0.17844,-0.34239 m -0.173,-0.35416 c 0.0969,0.19565 0.0969,0.19565 0,0 m -0.16848,-0.3759 c 0.12681,0.28351 0.12681,0.28351 0,0 m -0.1105,-0.27083 c 0,0.0118 0.17753,0.44927 0,0 m 2.48452,-6.52435 c -0.3324,0.10688 -0.66209,0.21467 -0.99542,0.32155 1.45652,-0.68205 4.08692,0.94383 3.71192,0.70923 -0.8188,-0.58695 -1.7246,-0.93205 -2.7165,-1.03078 m 54.2519,-0.19293 c -0.023,0.005 -0.045,0.0145 -0.067,0.0208 0.022,-0.006 0.044,-0.0154 0.067,-0.0208 m 0.01,-0.74274 c 0.01,0.11956 0.01,0.11956 0,0 m -0.034,-0.5326 c 0.013,0.20289 0.013,0.20289 0,0 m -38.4143,-1.26901 c 1.5163,0.10689 2.9819,0.44022 4.3958,1.00361 -1.4121,-0.50361 -2.884,-0.96194 -4.3958,-1.00361 m -0.1694,0 c -0.2164,0 -0.2164,0 0,0 m 35.0484,-0.78984 c 0.3822,0.40851 0.7672,0.81611 1.1503,1.22462 -0.3831,-0.40851 -0.7653,-0.81611 -1.1503,-1.22462 m 2.8559,-2.44199 c 0.3279,1.39672 0.5471,2.80883 0.6585,4.23907 -0.066,-0.8288 -0.3405,-3.40847 -0.6585,-4.23907 m -6.9192,-0.9094 c -0.2836,0.0806 -0.2836,0.0806 0,0"
         inkscape:connector-curvature="0"
         style="fill:#d69c5d"
         id="path12013" />
      <path
         d="m 999.28948,715.63205 c -0.0254,0.009 -0.0254,0.009 0,0 m -1.14491,-2.0516 c 0,0.47282 0.81792,1.79889 1.05886,2.02171 -0.43568,-0.62861 -0.78984,-1.3007 -1.05886,-2.02171 m 0.86502,-0.43839 c 0,-0.90035 0.37681,2.41844 0.27989,2.48999 0.0181,-0.83966 -0.0761,-1.67117 -0.27989,-2.48999 m 4.71191,-4.73906 c 0.9438,1.221 3.7726,9.46996 5.0443,9.46996 -2.4737,-2.54163 -2.5172,-6.8758 -5.0443,-9.46996 m -0.3741,-0.3134 m -3.71191,-0.70832 c -1.02625,0.81883 -1.01085,2.91934 -0.81792,4.03073 -0.0924,-1.16846 -0.26087,-3.16118 0.81792,-4.03073 m 55.28451,-0.66485 c -0.051,0.19656 -0.051,0.19656 0,0 m -2.4466,-1.96011 c 0.4203,0.51811 1.6087,2.1304 2.3415,2.1304 -0.9013,-0.56974 -1.6821,-1.28078 -2.3415,-2.1304 m -36.3617,-0.43478 c -2.115,0.0498 -3.7445,1.25632 -4.768,3.06517 -0.7618,1.34237 -2.173,10.39658 -2.5462,10.48263 0.3397,-0.17844 0.4484,-0.52445 0.3279,-1.03622 0.3034,-4.30428 1.1422,-12.3748 6.9863,-12.51158 m 0.163,0 c 0.3451,-0.004 0.6893,0.0208 1.0317,0.0679 -0.3442,-0.0236 -0.6875,-0.0471 -1.0317,-0.0679 m 30.7722,-4.08145 c -3.9583,2.63945 -6.7336,4.92474 -11.6538,5.98722 -6.7363,1.4565 -10.6846,-0.2201 -17.0351,-1.65034 5.6739,1.28169 9.0361,2.97912 15.0378,2.02262 5.7554,-0.91394 9.0642,-3.30339 13.6511,-6.3595 m 0.2138,-0.0598 c -9e-4,0 -9e-4,0 0,0 1.7155,0.68206 2.9465,2.2083 4.2109,3.50991 -0.8133,-0.83694 -2.7698,-3.50991 -4.2109,-3.50991"
         inkscape:connector-curvature="0"
         style="fill:#2e3436"
         id="path12015" />
      <path
         d="m 997.8674,711.05332 c 0,-16.94357 16.6836,-28.32835 32.6182,-26.49233 17.3847,2.00449 30.8228,19.70892 23.1264,36.74036 10.4772,-18.84572 -7.105,-40.0673 -26.8374,-40.0673 -19.7343,0 -37.12989,21.2877 -26.6853,40.07001 -1.45289,-3.21462 -2.2219,-6.72 -2.2219,-10.25074"
         inkscape:connector-curvature="0"
         style="fill:#2e3436"
         id="path12017" />
      <path
         sodipodi:nodetypes="cccacc"
         inkscape:connector-curvature="0"
         id="path4257"
         d="m 1056.8488,707.44241 c -4.357,-1.37995 -19.7256,-4.62436 -31.1681,-2.34666 -11.1965,2.93108 -22.0935,5.3195 -26.23306,16.52402 -5.42954,-12.15701 -2.19382,-21.2567 2.98196,-29.63011 3.8242,-6.187 14.287,-10.21363 18.3158,-11.3028 13.6608,-3.27525 34.8802,4.61086 36.1034,26.75555 z"
         style="fill:#88dea6;fill-opacity:1;fill-rule:evenodd;stroke:#000000;stroke-width:0.51096427px;stroke-linecap:butt;stroke-linejoin:round;stroke-opacity:1" />
      <path
         sodipodi:nodetypes="ccccc"
         inkscape:connector-curvature="0"
         id="path4216"
         d="m 1018.791,738.44265 c -6.9145,-3.54548 -11.3619,-5.75101 -16.8081,-11.13039 l 1.7811,2.49576 c 4.3872,4.34685 8.2829,5.95581 14.9325,9.51495 z"
         style="fill:#ffffff;fill-opacity:1;fill-rule:evenodd;stroke:#000000;stroke-width:0.60699999;stroke-linecap:round;stroke-linejoin:round;stroke-miterlimit:4;stroke-dasharray:none;stroke-opacity:1" />
      <path
         style="fill:#88dea6;fill-opacity:1;fill-rule:evenodd;stroke:#000000;stroke-width:0.60699999;stroke-linecap:butt;stroke-linejoin:round;stroke-miterlimit:4;stroke-dasharray:none;stroke-opacity:1"
         d="m 1035.3597,724.07785 c 7.2903,-0.47762 17.9787,-7.29283 20.8944,-6.61901 -0.6449,6.16157 -3.371,12.14625 -7.7094,18.31275 -5.4422,4.11156 -29.9198,10.6692 -41.2123,-1.57859 -0.1367,-6.46353 -1.6006,-10.53798 1.5318,-14.82553 10.5033,5.5242 17.5444,5.2968 26.4955,4.71038 z"
         id="path4208-8"
         inkscape:connector-curvature="0"
         sodipodi:nodetypes="acccca" />
      <path
         style="fill:#ffffff;fill-opacity:1;fill-rule:evenodd;stroke:#000000;stroke-width:0.35362238;stroke-linecap:butt;stroke-linejoin:miter;stroke-miterlimit:4;stroke-dasharray:none;stroke-opacity:1"
         d="m 1008.5361,720.32558 0.2913,-0.42364 c -4.1219,-2.02542 -7.8446,-4.17098 -10.4851,-6.69881 2.6319,2.49131 3.6761,3.93946 10.1938,7.12245 z"
         id="path4226"
         inkscape:connector-curvature="0"
         sodipodi:nodetypes="cccc" />
      <g
         transform="matrix(-0.06233256,-0.10732344,0.10732344,-0.06233256,911.83064,871.01611)"
         inkscape:label="Layer 1"
         id="layer1-68">
        <g
           inkscape:label="Layer 1"
           inkscape:export-xdpi="153.55908"
           transform="matrix(2.0996,0,0,2.0996,-193.28,-670.28)"
           inkscape:export-filename="D:\Vector_Art\my_folder\OCAL_dev\g5780.png"
           inkscape:transform-center-y="89.919539"
           inkscape:transform-center-x="30.382638"
           inkscape:export-ydpi="153.55908"
           id="layer1-9">
          <use
             x="0"
             y="0"
             width="574.56171"
             height="399.41446"
             transform="matrix(1,0,0,-1,0,1582.1)"
             xlink:href="D:\Vector_Art\my_folder\OCAL_dev\#path14548"
             id="use14556" />
          <g
             transform="translate(193.04,-44.548)"
             id="g3578">
            <g
               id="g12720"
               transform="matrix(1.0124366,-0.48202089,0.18523918,1.3164781,-161.92788,3.4294696)">
              <g
                 id="g12746"
                 transform="matrix(0.94565722,1.1575203,0.95466204,-0.94565721,-612.49641,1203.7324)">
                <path
                   d="m 118.89855,673.34604 64.31878,38.83913 c -24.93287,12.49622 -40.15494,-5.57783 -56.65816,-20.44695 -0.39546,-0.39023 -0.1714,-2.82256 -0.84141,-3.28965 -2.75709,-1.95722 -7.90756,-6.4953 -10.75784,-7.9786 l 3.93829,-7.12413 z"
                   style="color:#000000;fill:#ffffff;stroke:#000000;stroke-width:1.14265931;stroke-opacity:1"
                   sodipodi:nodetypes="cccccc"
                   id="rect2962"
                   inkscape:connector-curvature="0" />
                <path
                   d="m 104.20629,664.46967 0.938,0.52091 -8.504293,11.42887 -0.904308,-0.41678 8.470451,-11.53273 5e-5,-8e-5"
                   style="fill:#000000;stroke-width:1px"
                   inkscape:original-d="m 94.61133,639.11552 1.625,0 -2.6227,14.05186 -1.50256,0.0743 2.50026,-14.12607 z"
                   id="path4337"
                   inkscape:connector-curvature="0" />
                <path
                   d="m 118.80259,673.29241 c 21.87716,12.51387 45.96921,20.5834 64.50983,38.9459 -27.75251,8.64995 -46.42302,-20.0049 -68.54123,-31.66937 l 4.03105,-7.27673 z"
                   style="color:#000000;fill:#f9f9f9;stroke:#000000;stroke-width:1.14265931;stroke-opacity:1"
                   sodipodi:nodetypes="cccc"
                   id="path2967"
                   inkscape:connector-curvature="0" />
                <path
                   d="m 10.63281,612.50566 c 1.457357,0.83045 31.932009,21.45052 47.586241,26.46058 1.408328,0.45293 42.288969,23.48428 63.431719,35.22545 0.0686,2.53003 -2.47278,6.24212 -3.84547,6.91568 -2.49583,-1.2737 -5.35656,-4.58475 -10.5008,-0.65696 -1.48264,1.12845 -34.581978,-15.54694 -43.612729,-20.56197 C 44.330915,643.38721 19.9559,633.90769 4.2371556,626.87159 2.5760628,625.94914 -0.72140092,624.47456 -0.74612402,624.10424 -1.0249864,620.42079 4.7683659,611.35871 6.9934563,610.51968 l -5.3e-6,0 5.3e-6,0 c 0.1345683,-0.0576 2.4250121,1.32358 3.6374927,1.9854 z"
                   style="color:#000000;fill:#cccccc;stroke:#000000;stroke-width:0.81453991;stroke-opacity:1"
                   sodipodi:nodetypes="cccccccccccc"
                   id="path4392"
                   inkscape:connector-curvature="0" />
                <rect
                   inkscape:tile-y0="139.21306"
                   height="10.615095"
                   inkscape:tile-cy="144.53946"
                   inkscape:tile-cx="581.37501"
                   x="507.10544"
                   inkscape:tile-h="10.652802"
                   y="345.27133"
                   ry="0.26228666"
                   transform="matrix(0.62497215,0.78064704,-0.63791892,0.77010353,0,0)"
                   rx="0.25743967"
                   inkscape:tile-w="4.1120682"
                   width="1.4536859"
                   style="color:#000000;fill:#000000"
                   inkscape:tile-x0="579.31897"
                   id="rect7601" />
                <use
                   style="fill:#000000"
                   x="0"
                   y="0"
                   inkscape:tiled-clone-of="#rect7601"
                   width="574.56171"
                   height="399.41446"
                   transform="translate(2.3736245,1.3181414)"
                   xlink:href="#rect7601"
                   id="use7709" />
                <use
                   style="fill:#000000"
                   x="0"
                   y="0"
                   inkscape:tiled-clone-of="#rect7601"
                   width="574.56171"
                   height="399.41446"
                   transform="translate(4.7471913,2.6362508)"
                   xlink:href="#rect7601"
                   id="use7711" />
                <use
                   style="fill:#000000"
                   x="0"
                   y="0"
                   inkscape:tiled-clone-of="#rect7601"
                   width="574.56171"
                   height="399.41446"
                   transform="translate(7.120701,3.9543279)"
                   xlink:href="#rect7601"
                   id="use7713" />
                <use
                   style="fill:#000000"
                   x="0"
                   y="0"
                   inkscape:tiled-clone-of="#rect7601"
                   width="574.56171"
                   height="399.41446"
                   transform="translate(9.4942664,5.2724373)"
                   xlink:href="#rect7601"
                   id="use7715" />
                <use
                   style="fill:#000000"
                   x="0"
                   y="0"
                   inkscape:tiled-clone-of="#rect7601"
                   width="574.56171"
                   height="399.41446"
                   transform="translate(11.867833,6.5905463)"
                   xlink:href="#rect7601"
                   id="use7717" />
                <use
                   style="fill:#000000"
                   x="0"
                   y="0"
                   inkscape:tiled-clone-of="#rect7601"
                   width="574.56171"
                   height="399.41446"
                   transform="translate(14.241401,7.9086567)"
                   xlink:href="#rect7601"
                   id="use7719" />
              </g>
            </g>
          </g>
        </g>
      </g>
    </g>
  </g>
</svg>
